<?xml version="1.0" encoding="utf-8"?>
<!-- Generator: Adobe Illustrator 22.0.1, SVG Export Plug-In . SVG Version: 6.00 Build 0)  -->
<svg version="1.0" id="Layer_1" xmlns="http://www.w3.org/2000/svg" xmlns:xlink="http://www.w3.org/1999/xlink" x="0px" y="0px"
	 viewBox="0 0 375 218.2" style="enable-background:new 0 0 375 218.2;" xml:space="preserve">
<style type="text/css">
	.st0{fill:#0F277B;}
	.st1{fill:#F31E76;}
	.st2{fill:#F4C73D;}
	.st3{fill:#FFFFFF;stroke:#F4C73D;stroke-width:5.4749;stroke-miterlimit:10;}
	.st4{fill:#1D90D6;}
</style>
<rect x="750.3" y="-297.1" class="st0" width="283.1" height="260.9"/>
<rect x="779.4" y="-279.2" class="st1" width="225" height="225"/>
<g>
	<g>
		<path class="st2" d="M795.8-148.4l4.9-5.8c3.1,2.5,6.6,3.8,10.2,3.8c2.3,0,3.6-0.8,3.6-2.2v-0.1c0-1.3-1-2-5.3-3
			c-6.7-1.5-11.9-3.4-11.9-9.9v-0.1c0-5.8,4.6-10.1,12.2-10.1c5.3,0,9.5,1.4,12.9,4.2l-4.4,6.2c-2.9-2-6-3.1-8.8-3.1
			c-2.1,0-3.1,0.9-3.1,2v0.1c0,1.4,1.1,2.1,5.4,3.1c7.2,1.6,11.7,3.9,11.7,9.8v0.1c0,6.4-5.1,10.2-12.7,10.2
			C805-143.2,799.7-144.9,795.8-148.4z"/>
		<path class="st2" d="M834.3-167.5h-9.4v-7.6h27.6v7.6H843v23.8h-8.7V-167.5z"/>
		<path class="st2" d="M853.8-159.4L853.8-159.4c0-9.1,7.3-16.5,17-16.5s16.9,7.2,16.9,16.3v0.1c0,9-7.3,16.4-17,16.4
			S853.8-150.3,853.8-159.4z M878.8-159.4L878.8-159.4c0-4.6-3.3-8.6-8.1-8.6c-4.8,0-8,3.9-8,8.4v0.1c0,4.5,3.3,8.5,8,8.5
			C875.6-150.9,878.8-154.8,878.8-159.4z"/>
		<path class="st2" d="M892.3-175.2h14.9c4.8,0,8.1,1.3,10.2,3.4c1.8,1.8,2.8,4.2,2.8,7.3v0.1c0,4.8-2.6,8-6.5,9.7l7.5,11h-10.1
			l-6.3-9.5h-0.1H901v9.5h-8.7V-175.2z M906.7-160.1c3,0,4.7-1.4,4.7-3.7v-0.1c0-2.5-1.8-3.7-4.7-3.7H901v7.6H906.7z"/>
		<path class="st2" d="M932.5-155.5l-12-19.7h9.9l6.5,11.5l6.5-11.5h9.8l-12,19.6v11.9h-8.8V-155.5z"/>
	</g>
	<path class="st2" d="M983.1-185.9v0.1c0,2.4-2,4.4-4.4,4.4l0,0c-2.4,0-4.4-2-4.4-4.4v-0.1c0-2.4,2-4.4,4.4-4.4l0,0
		C981.1-190.2,983.1-188.3,983.1-185.9z M970.1-185.9v0.1c0,2.4-2,4.4-4.4,4.4l0,0c-2.4,0-4.4-2-4.4-4.4v-0.1c0-2.4,2-4.4,4.4-4.4
		l0,0C968.2-190.2,970.1-188.3,970.1-185.9z"/>
	<path class="st2" d="M988-175.2v14.4c0,11.2-6.5,17.8-15.6,17.8h-0.1c-9.1,0-15.8-6.6-15.8-17.9v-14.2H988z M964.2-160.7
		c0,5.2,2.9,8.7,8,8.7h0.1c5,0,8-3.5,8-8.7v-6.9h-16V-160.7z"/>
</g>
<g>
	<rect x="13.5" y="27.1" class="st1" width="347.9" height="110.4"/>
	<g>
		<rect x="48.6" y="79.8" class="st2" width="268.8" height="111.3"/>
		<rect x="57.6" y="67.8" class="st3" width="268.8" height="111.3"/>
	</g>
	<path class="st4" d="M290.9,93.7v0.1c0,2.6-2.1,4.8-4.8,4.8h0c-2.6,0-4.8-2.1-4.8-4.8v-0.1c0-2.6,2.1-4.8,4.8-4.8h0
		C288.8,88.9,290.9,91.1,290.9,93.7z M276.8,93.7v0.1c0,2.6-2.1,4.8-4.8,4.8l0,0c-2.6,0-4.8-2.1-4.8-4.8v-0.1c0-2.6,2.1-4.8,4.8-4.8
		l0,0C274.7,88.9,276.8,91.1,276.8,93.7z"/>
	<g>
		<path class="st4" d="M87.9,135.5l5.3-6.3c3.4,2.7,7.1,4.1,11.1,4.1c2.5,0,3.9-0.9,3.9-2.3v-0.1c0-1.4-1.1-2.2-5.8-3.3
			c-7.3-1.7-12.9-3.7-12.9-10.7v-0.1c0-6.3,5-10.9,13.2-10.9c5.8,0,10.3,1.6,14,4.5L112,117c-3.1-2.2-6.5-3.4-9.6-3.4
			c-2.3,0-3.4,1-3.4,2.2v0.1c0,1.6,1.2,2.2,5.9,3.3c7.8,1.7,12.7,4.2,12.7,10.6v0.1c0,7-5.5,11.1-13.8,11.1
			C97.8,141.1,92,139.2,87.9,135.5z"/>
		<path class="st4" d="M129.6,114.7h-10.2v-8.3h29.9v8.3H139v25.8h-9.5V114.7z"/>
		<path class="st4" d="M150.8,123.6L150.8,123.6c0-9.9,7.9-17.8,18.4-17.8c10.5,0,18.3,7.8,18.3,17.6v0.1c0,9.8-7.9,17.7-18.4,17.7
			C158.6,141.2,150.8,133.4,150.8,123.6z M177.8,123.6L177.8,123.6c0-5-3.6-9.3-8.8-9.3c-5.2,0-8.6,4.2-8.6,9.1v0.1
			c0,4.9,3.6,9.2,8.7,9.2C174.4,132.7,177.8,128.5,177.8,123.6z"/>
		<path class="st4" d="M192.4,106.4h16.1c5.2,0,8.8,1.4,11.1,3.7c2,1.9,3,4.6,3,7.9v0.1c0,5.2-2.8,8.7-7,10.5l8.1,11.9h-10.9
			l-6.9-10.3h-0.1h-4v10.3h-9.5V106.4z M208.1,122.8c3.2,0,5.1-1.6,5.1-4v-0.1c0-2.7-1.9-4-5.1-4h-6.2v8.2H208.1z"/>
		<path class="st4" d="M236.1,127.8l-13-21.3h10.8l7,12.4l7.1-12.4h10.6l-13,21.2v12.9h-9.5V127.8z"/>
	</g>
	<path class="st4" d="M296.2,106.4V122c0,12.2-7,19.2-16.9,19.2h-0.1c-9.8,0-17.2-7.2-17.2-19.4v-15.4H296.2z M270.4,122.1
		c0,5.7,3.1,9.4,8.6,9.4h0.1c5.5,0,8.6-3.8,8.6-9.4v-7.5h-17.3V122.1z"/>
</g>
<rect x="-124.7" y="-1107.4" class="st1" width="375" height="667"/>
</svg>
