<?xml version="1.0" encoding="utf-8"?>
<!-- Generator: Adobe Illustrator 22.0.1, SVG Export Plug-In . SVG Version: 6.00 Build 0)  -->
<svg version="1.0" id="Layer_1" xmlns="http://www.w3.org/2000/svg" xmlns:xlink="http://www.w3.org/1999/xlink" x="0px" y="0px"
	 viewBox="0 0 260 86.2" style="enable-background:new 0 0 260 86.2;" xml:space="preserve">
<style type="text/css">
	.st0{fill:none;stroke:#000000;stroke-width:3.5332;stroke-miterlimit:10;}
</style>
<g>
	<g>
		<g>
			<g>
				<path d="M31.9,56.6l4.9-5.8c3.1,2.5,6.6,3.8,10.2,3.8c2.3,0,3.6-0.8,3.6-2.2v-0.1c0-1.3-1-2-5.3-3c-6.7-1.5-11.9-3.4-11.9-9.9
					v-0.1c0-5.8,4.6-10.1,12.2-10.1c5.3,0,9.5,1.4,12.9,4.2l-4.4,6.2c-2.9-2-6-3.1-8.8-3.1c-2.1,0-3.1,0.9-3.1,2v0.1
					c0,1.4,1.1,2.1,5.4,3.1c7.2,1.6,11.7,3.9,11.7,9.8v0.1c0,6.4-5.1,10.2-12.7,10.2C41,61.9,35.7,60.1,31.9,56.6z"/>
				<path d="M70.3,37.5h-9.4v-7.6h27.6v7.6h-9.4v23.8h-8.7V37.5z"/>
				<path d="M89.9,45.7L89.9,45.7c0-9.1,7.3-16.5,17-16.5s16.9,7.2,16.9,16.3v0.1c0,9-7.3,16.4-17,16.4S89.9,54.7,89.9,45.7z
					 M114.9,45.7L114.9,45.7c0-4.6-3.3-8.6-8.1-8.6c-4.8,0-8,3.9-8,8.4v0.1c0,4.5,3.3,8.5,8,8.5C111.7,54.1,114.9,50.2,114.9,45.7z"
					/>
				<path d="M128.3,29.9h14.9c4.8,0,8.1,1.3,10.2,3.4c1.8,1.8,2.8,4.2,2.8,7.3v0.1c0,4.8-2.6,8-6.5,9.7l7.5,11h-10.1l-6.3-9.5h-0.1
					H137v9.5h-8.7V29.9z M142.8,45c3,0,4.7-1.4,4.7-3.7v-0.1c0-2.5-1.8-3.7-4.7-3.7H137V45H142.8z"/>
				<path d="M168.6,49.5l-12-19.7h9.9l6.5,11.5l6.5-11.5h9.8l-12,19.6v11.9h-8.8V49.5z"/>
			</g>
			<path d="M219.2,19.2v0.1c0,2.4-2,4.4-4.4,4.4h0c-2.4,0-4.4-2-4.4-4.4v-0.1c0-2.4,2-4.4,4.4-4.4h0
				C217.2,14.8,219.2,16.8,219.2,19.2z M206.2,19.2v0.1c0,2.4-2,4.4-4.4,4.4h0c-2.4,0-4.4-2-4.4-4.4v-0.1c0-2.4,2-4.4,4.4-4.4h0
				C204.2,14.8,206.2,16.8,206.2,19.2z"/>
			<path d="M224,29.8v14.4c0,11.2-6.5,17.8-15.6,17.8h-0.1c-9.1,0-15.8-6.6-15.8-17.9V29.8H224z M200.3,44.3c0,5.2,2.9,8.7,8,8.7
				h0.1c5,0,8-3.5,8-8.7v-6.9h-16V44.3z"/>
		</g>
	</g>
	<rect x="9.6" y="6.2" class="st0" width="240.9" height="73.8"/>
</g>
</svg>
