<?xml version="1.0" encoding="utf-8"?>
<!-- Generator: Adobe Illustrator 22.0.1, SVG Export Plug-In . SVG Version: 6.00 Build 0)  -->
<svg version="1.0" id="Layer_1" xmlns="http://www.w3.org/2000/svg" xmlns:xlink="http://www.w3.org/1999/xlink" x="0px" y="0px"
	 viewBox="0 0 375 667" style="enable-background:new 0 0 375 667;" xml:space="preserve">
<style type="text/css">
	.st0{fill:#0F277B;}
	.st1{fill:#F31E76;}
	.st2{fill:#F4C73D;}
	.st3{fill:#FFC0C0;}
	.st4{fill:#9F4CD6;}
	.st5{fill:#FFFFFF;stroke:#DE2127;stroke-width:3;stroke-miterlimit:10;}
	.st6{fill:#FFFFFF;stroke:#F4C73D;stroke-width:5.4749;stroke-miterlimit:10;}
	.st7{fill:#1D90D6;}
	.st8{fill:none;stroke:#F31E76;stroke-miterlimit:10;}
	.st9{fill:none;stroke:#0F277B;stroke-width:1.3979;stroke-miterlimit:10;}
</style>
<rect x="444" y="-121.7" class="st0" width="283.1" height="260.9"/>
<rect x="473.1" y="-103.8" class="st1" width="225" height="225"/>
<g>
	<g>
		<path class="st2" d="M489.5,27l4.9-5.8c3.1,2.5,6.6,3.8,10.2,3.8c2.3,0,3.6-0.8,3.6-2.2v-0.1c0-1.3-1-2-5.3-3
			c-6.7-1.5-11.9-3.4-11.9-9.9V9.7c0-5.8,4.6-10.1,12.2-10.1c5.3,0,9.5,1.4,12.9,4.2l-4.4,6.2c-2.9-2-6-3.1-8.8-3.1
			c-2.1,0-3.1,0.9-3.1,2V9c0,1.4,1.1,2.1,5.4,3.1c7.2,1.6,11.7,3.9,11.7,9.8V22c0,6.4-5.1,10.2-12.7,10.2
			C498.6,32.2,493.3,30.5,489.5,27z"/>
		<path class="st2" d="M528,7.8h-9.4V0.2h27.6v7.6h-9.4v23.8H528V7.8z"/>
		<path class="st2" d="M547.5,16L547.5,16c0-9.1,7.3-16.5,17-16.5s16.9,7.2,16.9,16.3v0.1c0,9-7.3,16.4-17,16.4
			C554.7,32.3,547.5,25.1,547.5,16z M572.5,16L572.5,16c0-4.6-3.3-8.6-8.1-8.6c-4.8,0-8,3.9-8,8.4v0.1c0,4.5,3.3,8.5,8,8.5
			C569.3,24.4,572.5,20.6,572.5,16z"/>
		<path class="st2" d="M585.9,0.2h14.9c4.8,0,8.1,1.3,10.2,3.4c1.8,1.8,2.8,4.2,2.8,7.3V11c0,4.8-2.6,8-6.5,9.7l7.5,11h-10.1
			l-6.3-9.5h-0.1h-3.7v9.5h-8.7V0.2z M600.4,15.3c3,0,4.7-1.4,4.7-3.7v-0.1c0-2.5-1.8-3.7-4.7-3.7h-5.7v7.6H600.4z"/>
		<path class="st2" d="M626.2,19.9l-12-19.7h9.9l6.5,11.5l6.5-11.5h9.8l-12,19.6v11.9h-8.8V19.9z"/>
	</g>
	<path class="st2" d="M676.8-10.5v0.1c0,2.4-2,4.4-4.4,4.4l0,0c-2.4,0-4.4-2-4.4-4.4v-0.1c0-2.4,2-4.4,4.4-4.4l0,0
		C674.8-14.9,676.8-12.9,676.8-10.5z M663.8-10.5v0.1c0,2.4-2,4.4-4.4,4.4l0,0c-2.4,0-4.4-2-4.4-4.4v-0.1c0-2.4,2-4.4,4.4-4.4l0,0
		C661.8-14.9,663.8-12.9,663.8-10.5z"/>
	<path class="st2" d="M681.6,0.2v14.4c0,11.2-6.5,17.8-15.6,17.8H666c-9.1,0-15.8-6.6-15.8-17.9V0.2H681.6z M657.9,14.7
		c0,5.2,2.9,8.7,8,8.7h0.1c5,0,8-3.5,8-8.7V7.8h-16V14.7z"/>
</g>
<rect x="-431" y="-932" class="st2" width="375" height="667"/>
<rect y="-932" class="st3" width="375" height="667"/>
<polygon class="st0" points="375,-265 0,-265 0,-304.6 375,-372.9 "/>
<rect class="st2" width="375" height="667"/>
<polygon class="st1" points="375,667 0,667 0,627.4 375,559.1 "/>
<rect x="800" y="-1120.7" class="st3" width="254.4" height="254.4"/>
<g>
	<g>
		<path class="st4" d="M839.7-980.8l4.4-5.3c2.8,2.3,6,3.4,9.3,3.4c2.1,0,3.3-0.7,3.3-2v-0.1c0-1.2-0.9-1.8-4.8-2.7
			c-6.1-1.4-10.8-3.1-10.8-9v-0.1c0-5.3,4.2-9.2,11.1-9.2c4.9,0,8.7,1.3,11.8,3.8l-4,5.6c-2.6-1.8-5.5-2.8-8-2.8
			c-1.9,0-2.9,0.8-2.9,1.8v0.1c0,1.3,1,1.9,5,2.8c6.6,1.4,10.7,3.6,10.7,8.9v0.1c0,5.9-4.6,9.3-11.6,9.3
			C848.1-976,843.2-977.6,839.7-980.8z"/>
		<path class="st4" d="M874.7-998.2h-8.6v-7h25.1v7h-8.6v21.7h-7.9V-998.2z"/>
		<path class="st4" d="M892.6-990.7L892.6-990.7c0-8.3,6.6-15,15.5-15s15.4,6.6,15.4,14.8v0.1c0,8.2-6.6,14.9-15.5,14.9
			S892.6-982.5,892.6-990.7z M915.3-990.7L915.3-990.7c0-4.2-3-7.8-7.4-7.8c-4.3,0-7.2,3.5-7.2,7.7v0.1c0,4.1,3,7.7,7.3,7.7
			C912.4-983.1,915.3-986.6,915.3-990.7z"/>
		<path class="st4" d="M927.6-1005.2h13.6c4.4,0,7.4,1.1,9.3,3.1c1.7,1.6,2.5,3.8,2.5,6.7v0.1c0,4.4-2.3,7.3-5.9,8.8l6.8,10h-9.2
			l-5.8-8.7h-0.1h-3.4v8.7h-7.9V-1005.2z M940.8-991.4c2.7,0,4.3-1.3,4.3-3.4v-0.1c0-2.3-1.6-3.4-4.3-3.4h-5.2v6.9H940.8z"/>
		<path class="st4" d="M964.3-987.2l-10.9-17.9h9l5.9,10.4l5.9-10.4h8.9l-10.9,17.8v10.9h-8V-987.2z"/>
	</g>
	<path class="st4" d="M1010.3-1013.1v0.1c0,2.2-1.8,4-4,4l0,0c-2.2,0-4-1.8-4-4v-0.1c0-2.2,1.8-4,4-4l0,0
		C1008.5-1017.1,1010.3-1015.3,1010.3-1013.1z M998.5-1013.1v0.1c0,2.2-1.8,4-4,4l0,0c-2.2,0-4-1.8-4-4v-0.1c0-2.2,1.8-4,4-4l0,0
		C996.7-1017.1,998.5-1015.3,998.5-1013.1z"/>
	<path class="st4" d="M1014.8-1005.2v13.1c0,10.2-5.9,16.2-14.2,16.2h-0.1c-8.3,0-14.4-6-14.4-16.3v-12.9H1014.8z M993.1-992
		c0,4.8,2.6,7.9,7.2,7.9h0.1c4.6,0,7.2-3.2,7.2-7.9v-6.3h-14.6V-992z"/>
</g>
<g>
	<g>
		<rect x="-354.5" y="-618" class="st5" width="222" height="55"/>
		<text transform="matrix(1 0 0 1 -283.663 -581.2567)" style="fill:#DE2127; font-family:'Anton-Regular'; font-size:24px;">REGISTER</text>
	</g>
</g>
<g>
	<rect x="-414.7" y="-893.5" class="st1" width="347.9" height="110.4"/>
	<g>
		<rect x="-379.6" y="-840.8" class="st2" width="268.8" height="111.3"/>
		<rect x="-370.6" y="-852.8" class="st6" width="268.8" height="111.3"/>
	</g>
	<path class="st7" d="M-137.3-826.9v0.1c0,2.6-2.1,4.8-4.8,4.8h0c-2.6,0-4.8-2.1-4.8-4.8v-0.1c0-2.6,2.1-4.8,4.8-4.8h0
		C-139.5-831.7-137.3-829.5-137.3-826.9z M-151.4-826.9v0.1c0,2.6-2.1,4.8-4.8,4.8l0,0c-2.6,0-4.8-2.1-4.8-4.8v-0.1
		c0-2.6,2.1-4.8,4.8-4.8l0,0C-153.5-831.7-151.4-829.5-151.4-826.9z"/>
	<g>
		<path class="st7" d="M-340.4-785.2l5.3-6.3c3.4,2.7,7.1,4.1,11.1,4.1c2.5,0,3.9-0.9,3.9-2.3v-0.1c0-1.4-1.1-2.2-5.8-3.3
			c-7.3-1.7-12.9-3.7-12.9-10.7v-0.1c0-6.3,5-10.9,13.2-10.9c5.8,0,10.3,1.6,14,4.5l-4.7,6.7c-3.1-2.2-6.5-3.4-9.6-3.4
			c-2.3,0-3.4,1-3.4,2.2v0.1c0,1.6,1.2,2.2,5.9,3.3c7.8,1.7,12.7,4.2,12.7,10.6v0.1c0,7-5.5,11.1-13.8,11.1
			C-330.4-779.5-336.2-781.4-340.4-785.2z"/>
		<path class="st7" d="M-298.7-805.9h-10.2v-8.3h29.9v8.3h-10.2v25.8h-9.5V-805.9z"/>
		<path class="st7" d="M-277.5-797.1L-277.5-797.1c0-9.9,7.9-17.8,18.4-17.8c10.5,0,18.3,7.8,18.3,17.6v0.1
			c0,9.8-7.9,17.7-18.4,17.7C-269.7-779.4-277.5-787.3-277.5-797.1z M-250.4-797.1L-250.4-797.1c0-5-3.6-9.3-8.8-9.3
			c-5.2,0-8.6,4.2-8.6,9.1v0.1c0,4.9,3.6,9.2,8.7,9.2C-253.8-787.9-250.4-792.1-250.4-797.1z"/>
		<path class="st7" d="M-235.8-814.2h16.1c5.2,0,8.8,1.4,11.1,3.7c2,1.9,3,4.6,3,7.9v0.1c0,5.2-2.8,8.7-7,10.5l8.1,11.9h-10.9
			l-6.9-10.3h-0.1h-4v10.3h-9.5V-814.2z M-220.1-797.8c3.2,0,5.1-1.6,5.1-4v-0.1c0-2.7-1.9-4-5.1-4h-6.2v8.2H-220.1z"/>
		<path class="st7" d="M-192.2-792.9l-13-21.3h10.8l7,12.4l7.1-12.4h10.6l-13,21.2v12.9h-9.5V-792.9z"/>
	</g>
	<path class="st7" d="M-132.1-814.2v15.6c0,12.2-7,19.2-16.9,19.2h-0.1c-9.8,0-17.2-7.2-17.2-19.4v-15.4H-132.1z M-157.8-798.5
		c0,5.7,3.1,9.4,8.6,9.4h0.1c5.5,0,8.6-3.8,8.6-9.4v-7.5h-17.3V-798.5z"/>
</g>
<g>
	<rect x="13.5" y="-913.5" class="st1" width="347.9" height="110.4"/>
	<g>
		<rect x="48.6" y="-860.8" class="st2" width="268.8" height="111.3"/>
		<rect x="57.6" y="-872.8" class="st6" width="268.8" height="111.3"/>
	</g>
	<path class="st7" d="M290.9-846.9v0.1c0,2.6-2.1,4.8-4.8,4.8l0,0c-2.6,0-4.8-2.1-4.8-4.8v-0.1c0-2.6,2.1-4.8,4.8-4.8l0,0
		C288.8-851.7,290.9-849.5,290.9-846.9z M276.8-846.9v0.1c0,2.6-2.1,4.8-4.8,4.8l0,0c-2.6,0-4.8-2.1-4.8-4.8v-0.1
		c0-2.6,2.1-4.8,4.8-4.8l0,0C274.7-851.7,276.8-849.5,276.8-846.9z"/>
	<g>
		<path class="st7" d="M87.8-805.2l5.3-6.3c3.4,2.7,7.1,4.1,11.1,4.1c2.5,0,3.9-0.9,3.9-2.3v-0.1c0-1.4-1.1-2.2-5.8-3.3
			c-7.3-1.7-12.9-3.7-12.9-10.7v-0.1c0-6.3,5-10.9,13.2-10.9c5.8,0,10.3,1.6,14,4.5l-4.7,6.7c-3.1-2.2-6.5-3.4-9.6-3.4
			c-2.3,0-3.4,1-3.4,2.2v0.1c0,1.6,1.2,2.2,5.9,3.3c7.8,1.7,12.7,4.2,12.7,10.6v0.1c0,7-5.5,11.1-13.8,11.1
			C97.8-799.5,92-801.4,87.8-805.2z"/>
		<path class="st7" d="M129.6-825.9h-10.2v-8.3h29.9v8.3H139v25.8h-9.5V-825.9z"/>
		<path class="st7" d="M150.8-817.1L150.8-817.1c0-9.9,7.9-17.8,18.4-17.8c10.5,0,18.3,7.8,18.3,17.6v0.1c0,9.8-7.9,17.7-18.4,17.7
			C158.5-799.4,150.8-807.3,150.8-817.1z M177.8-817.1L177.8-817.1c0-5-3.6-9.3-8.8-9.3c-5.2,0-8.6,4.2-8.6,9.1v0.1
			c0,4.9,3.6,9.2,8.7,9.2C174.4-807.9,177.8-812.1,177.8-817.1z"/>
		<path class="st7" d="M192.4-834.2h16.1c5.2,0,8.8,1.4,11.1,3.7c2,1.9,3,4.6,3,7.9v0.1c0,5.2-2.8,8.7-7,10.5l8.1,11.9h-10.9
			l-6.9-10.3h-0.1h-4v10.3h-9.5V-834.2z M208.1-817.8c3.2,0,5.1-1.6,5.1-4v-0.1c0-2.7-1.9-4-5.1-4h-6.2v8.2H208.1z"/>
		<path class="st7" d="M236.1-812.9l-13-21.3h10.8l7,12.4l7.1-12.4h10.6l-13,21.2v12.9h-9.5V-812.9z"/>
	</g>
	<path class="st7" d="M296.2-834.2v15.6c0,12.2-7,19.2-16.9,19.2h-0.1c-9.8,0-17.2-7.2-17.2-19.4v-15.4H296.2z M270.4-818.5
		c0,5.7,3.1,9.4,8.6,9.4h0.1c5.5,0,8.6-3.8,8.6-9.4v-7.5h-17.3V-818.5z"/>
</g>
<rect x="-1128" y="-932" class="st3" width="375" height="667"/>
<polygon class="st0" points="-753,-265 -1128,-265 -1128,-304.6 -753,-372.9 "/>
<g>
	<rect x="-1114.5" y="-913.5" class="st1" width="347.9" height="110.4"/>
	<g>
		<rect x="-1079.4" y="-860.8" class="st2" width="268.8" height="111.3"/>
		<rect x="-1070.4" y="-872.8" class="st6" width="268.8" height="111.3"/>
	</g>
	<path class="st7" d="M-837.1-846.9v0.1c0,2.6-2.1,4.8-4.8,4.8l0,0c-2.6,0-4.8-2.1-4.8-4.8v-0.1c0-2.6,2.1-4.8,4.8-4.8l0,0
		C-839.2-851.7-837.1-849.5-837.1-846.9z M-851.2-846.9v0.1c0,2.6-2.1,4.8-4.8,4.8l0,0c-2.6,0-4.8-2.1-4.8-4.8v-0.1
		c0-2.6,2.1-4.8,4.8-4.8l0,0C-853.3-851.7-851.2-849.5-851.2-846.9z"/>
	<g>
		<path class="st7" d="M-1040.2-805.2l5.3-6.3c3.4,2.7,7.1,4.1,11.1,4.1c2.5,0,3.9-0.9,3.9-2.3v-0.1c0-1.4-1.1-2.2-5.8-3.3
			c-7.3-1.7-12.9-3.7-12.9-10.7v-0.1c0-6.3,5-10.9,13.2-10.9c5.8,0,10.3,1.6,14,4.5l-4.7,6.7c-3.1-2.2-6.5-3.4-9.6-3.4
			c-2.3,0-3.4,1-3.4,2.2v0.1c0,1.6,1.2,2.2,5.9,3.3c7.8,1.7,12.7,4.2,12.7,10.6v0.1c0,7-5.5,11.1-13.8,11.1
			C-1030.2-799.5-1036-801.4-1040.2-805.2z"/>
		<path class="st7" d="M-998.4-825.9h-10.2v-8.3h29.9v8.3H-989v25.8h-9.5V-825.9z"/>
		<path class="st7" d="M-977.2-817.1L-977.2-817.1c0-9.9,7.9-17.8,18.4-17.8c10.5,0,18.3,7.8,18.3,17.6v0.1
			c0,9.8-7.9,17.7-18.4,17.7C-969.5-799.4-977.2-807.3-977.2-817.1z M-950.2-817.1L-950.2-817.1c0-5-3.6-9.3-8.8-9.3
			c-5.2,0-8.6,4.2-8.6,9.1v0.1c0,4.9,3.6,9.2,8.7,9.2C-953.6-807.9-950.2-812.1-950.2-817.1z"/>
		<path class="st7" d="M-935.6-834.2h16.1c5.2,0,8.8,1.4,11.1,3.7c2,1.9,3,4.6,3,7.9v0.1c0,5.2-2.8,8.7-7,10.5l8.1,11.9h-10.9
			l-6.9-10.3h-0.1h-4v10.3h-9.5V-834.2z M-919.9-817.8c3.2,0,5.1-1.6,5.1-4v-0.1c0-2.7-1.9-4-5.1-4h-6.2v8.2H-919.9z"/>
		<path class="st7" d="M-891.9-812.9l-13-21.3h10.8l7,12.4l7.1-12.4h10.6l-13,21.2v12.9h-9.5V-812.9z"/>
	</g>
	<path class="st7" d="M-831.8-834.2v15.6c0,12.2-7,19.2-16.9,19.2h-0.1c-9.8,0-17.2-7.2-17.2-19.4v-15.4H-831.8z M-857.6-818.5
		c0,5.7,3.1,9.4,8.6,9.4h0.1c5.5,0,8.6-3.8,8.6-9.4v-7.5h-17.3V-818.5z"/>
</g>
<g>
	<g>
		<path class="st2" d="M544.4-580.2l4.9-5.8c3.1,2.5,6.6,3.8,10.2,3.8c2.3,0,3.6-0.8,3.6-2.2v-0.1c0-1.3-1-2-5.3-3
			c-6.7-1.5-11.9-3.4-11.9-9.9v-0.1c0-5.8,4.6-10.1,12.2-10.1c5.3,0,9.5,1.4,12.9,4.2l-4.4,6.2c-2.9-2-6-3.1-8.8-3.1
			c-2.1,0-3.1,0.9-3.1,2v0.1c0,1.4,1.1,2.1,5.4,3.1c7.2,1.6,11.7,3.9,11.7,9.8v0.1c0,6.4-5.1,10.2-12.7,10.2
			C553.6-575,548.3-576.8,544.4-580.2z"/>
		<path class="st2" d="M582.9-599.4h-9.4v-7.6h27.6v7.6h-9.4v23.8h-8.7V-599.4z"/>
		<path class="st2" d="M602.4-591.2L602.4-591.2c0-9.1,7.3-16.5,17-16.5s16.9,7.2,16.9,16.3v0.1c0,9-7.3,16.4-17,16.4
			S602.4-582.2,602.4-591.2z M627.4-591.2L627.4-591.2c0-4.6-3.3-8.6-8.1-8.6c-4.8,0-8,3.9-8,8.4v0.1c0,4.5,3.3,8.5,8,8.5
			C624.2-582.8,627.4-586.7,627.4-591.2z"/>
		<path class="st2" d="M640.9-607h14.9c4.8,0,8.1,1.3,10.2,3.4c1.8,1.8,2.8,4.2,2.8,7.3v0.1c0,4.8-2.6,8-6.5,9.7l7.5,11h-10.1
			l-6.3-9.5h-0.1h-3.7v9.5h-8.7V-607z M655.4-591.9c3,0,4.7-1.4,4.7-3.7v-0.1c0-2.5-1.8-3.7-4.7-3.7h-5.7v7.6H655.4z"/>
		<path class="st2" d="M681.2-587.3l-12-19.7h9.9l6.5,11.5l6.5-11.5h9.8l-12,19.6v11.9h-8.8V-587.3z"/>
	</g>
	<path class="st2" d="M731.7-617.7v0.1c0,2.4-2,4.4-4.4,4.4l0,0c-2.4,0-4.4-2-4.4-4.4v-0.1c0-2.4,2-4.4,4.4-4.4l0,0
		C729.8-622.1,731.7-620.1,731.7-617.7z M718.7-617.7v0.1c0,2.4-2,4.4-4.4,4.4l0,0c-2.4,0-4.4-2-4.4-4.4v-0.1c0-2.4,2-4.4,4.4-4.4
		l0,0C716.8-622.1,718.7-620.1,718.7-617.7z"/>
	<path class="st2" d="M736.6-607.1v14.4c0,11.2-6.5,17.8-15.6,17.8h-0.1c-9.1,0-15.8-6.6-15.8-17.9v-14.2H736.6z M712.9-592.5
		c0,5.2,2.9,8.7,8,8.7h0.1c5,0,8-3.5,8-8.7v-6.9h-16V-592.5z"/>
</g>
<text transform="matrix(1 0 0 1 1004.1873 -583.7767)" class="st1" style="font-family:'Gotham-Light'; font-size:17.906px;">Login</text>
<text transform="matrix(1 0 0 1 985.688 -491.7767)" class="st1" style="font-family:'Gotham-Bold'; font-size:17.906px;">REGISTER</text>
<rect x="950.5" y="-612.4" class="st8" width="156" height="46"/>
<g>
	<text transform="matrix(1 0 0 1 -143.117 8.225504e-02)" class="st1" style="font-family:'Gotham-Light'; font-size:17.906px;">Login</text>
	<rect x="-196.8" y="-28.5" class="st8" width="156" height="46"/>
</g>
<line class="st8" x1="916" y1="-536.6" x2="1147" y2="-536.6"/>
<text transform="matrix(1 0 0 1 -1814.371 71.7932)" class="st0" style="font-family:'GothamHTF-Black'; font-size:44.8753px;">COMMENTS</text>
<text transform="matrix(1 0 0 1 -2176.8628 71.7932)" class="st0" style="font-family:'GothamHTF-Black'; font-size:44.8753px;">REVIEWS</text>
<text transform="matrix(1 0 0 1 -595.7089 439.4331)" class="st0" style="font-family:'GothamHTF-Black'; font-size:44.8753px;">PROFILE</text>
<text transform="matrix(1 0 0 1 -735.2133 255.4331)" class="st0" style="font-family:'GothamHTF-Black'; font-size:44.8753px;">SETTINGS</text>
<text transform="matrix(1 0 0 1 -1117.328 245.7932)" class="st0" style="font-family:'GothamHTF-Black'; font-size:44.8753px;">HOME</text>
<text transform="matrix(1 0 0 1 -1428.1552 71.7932)" class="st0" style="font-family:'GothamHTF-Black'; font-size:44.8753px;">CONTACT</text>
<text transform="matrix(1 0 0 1 -2546.1592 71.7932)" class="st0" style="font-family:'GothamHTF-Black'; font-size:44.8753px;">TOPICS</text>
<line class="st9" x1="-2578.8" y1="88.7" x2="-2341" y2="88.7"/>
</svg>
