<?xml version="1.0" encoding="utf-8"?>
<!-- Generator: Adobe Illustrator 22.0.1, SVG Export Plug-In . SVG Version: 6.00 Build 0)  -->
<svg version="1.0" id="Layer_1" xmlns="http://www.w3.org/2000/svg" xmlns:xlink="http://www.w3.org/1999/xlink" x="0px" y="0px"
	 viewBox="0 0 414 100" style="enable-background:new 0 0 414 100;" xml:space="preserve">
<style type="text/css">
	.st0{fill:#0F277B;}
	.st1{fill:#F31E76;}
	.st2{fill:#F4C73D;}
	.st3{fill:#FFC0C0;}
	.st4{fill:#9F4CD6;}
	.st5{fill:#FFFFFF;stroke:#DE2127;stroke-width:3;stroke-miterlimit:10;}
	.st6{fill:#FFFFFF;stroke:#F4C73D;stroke-width:5.4749;stroke-miterlimit:10;}
	.st7{fill:#1D90D6;}
	.st8{fill:none;stroke:#F31E76;stroke-miterlimit:10;}
	.st9{fill:none;stroke:#0F277B;stroke-width:1.3979;stroke-miterlimit:10;}
</style>
<rect x="3114.2" y="-385.1" class="st0" width="283.1" height="260.9"/>
<rect x="3143.2" y="-367.2" class="st1" width="225" height="225"/>
<g>
	<g>
		<path class="st2" d="M3159.6-236.4l4.9-5.8c3.1,2.5,6.6,3.8,10.2,3.8c2.3,0,3.6-0.8,3.6-2.2v-0.1c0-1.3-1-2-5.3-3
			c-6.7-1.5-11.9-3.4-11.9-9.9v-0.1c0-5.8,4.6-10.1,12.2-10.1c5.3,0,9.5,1.4,12.9,4.2l-4.4,6.2c-2.9-2-6-3.1-8.8-3.1
			c-2.1,0-3.1,0.9-3.1,2v0.1c0,1.4,1.1,2.1,5.4,3.1c7.2,1.6,11.7,3.9,11.7,9.8v0.1c0,6.4-5.1,10.2-12.7,10.2
			C3168.8-231.2,3163.5-232.9,3159.6-236.4z"/>
		<path class="st2" d="M3198.1-255.5h-9.4v-7.6h27.6v7.6h-9.4v23.8h-8.7V-255.5z"/>
		<path class="st2" d="M3217.7-247.4L3217.7-247.4c0-9.1,7.3-16.5,17-16.5s16.9,7.2,16.9,16.3v0.1c0,9-7.3,16.4-17,16.4
			S3217.7-238.3,3217.7-247.4z M3242.7-247.4L3242.7-247.4c0-4.6-3.3-8.6-8.1-8.6c-4.8,0-8,3.9-8,8.4v0.1c0,4.5,3.3,8.5,8,8.5
			C3239.5-238.9,3242.7-242.8,3242.7-247.4z"/>
		<path class="st2" d="M3256.1-263.2h14.9c4.8,0,8.1,1.3,10.2,3.4c1.8,1.8,2.8,4.2,2.8,7.3v0.1c0,4.8-2.6,8-6.5,9.7l7.5,11H3275
			l-6.3-9.5h-0.1h-3.7v9.5h-8.7V-263.2z M3270.6-248.1c3,0,4.7-1.4,4.7-3.7v-0.1c0-2.5-1.8-3.7-4.7-3.7h-5.7v7.6H3270.6z"/>
		<path class="st2" d="M3296.4-243.5l-12-19.7h9.9l6.5,11.5l6.5-11.5h9.8l-12,19.6v11.9h-8.8V-243.5z"/>
	</g>
	<path class="st2" d="M3347-273.9v0.1c0,2.4-2,4.4-4.4,4.4l0,0c-2.4,0-4.4-2-4.4-4.4v-0.1c0-2.4,2-4.4,4.4-4.4l0,0
		C3345-278.2,3347-276.3,3347-273.9z M3334-273.9v0.1c0,2.4-2,4.4-4.4,4.4l0,0c-2.4,0-4.4-2-4.4-4.4v-0.1c0-2.4,2-4.4,4.4-4.4l0,0
		C3332-278.2,3334-276.3,3334-273.9z"/>
	<path class="st2" d="M3351.8-263.2v14.4c0,11.2-6.5,17.8-15.6,17.8h-0.1c-9.1,0-15.8-6.6-15.8-17.9v-14.2H3351.8z M3328.1-248.7
		c0,5.2,2.9,8.7,8,8.7h0.1c5,0,8-3.5,8-8.7v-6.9h-16V-248.7z"/>
</g>
<rect x="2239.2" y="-1195.4" class="st2" width="375" height="667"/>
<rect x="2670.2" y="-1195.4" class="st3" width="375" height="667"/>
<polygon class="st0" points="3045.2,-528.4 2670.2,-528.4 2670.2,-568 3045.2,-636.2 "/>
<rect x="2670.2" y="-263.4" class="st1" width="375" height="667"/>
<polygon class="st2" points="3045.2,403.6 2670.2,403.6 2670.2,364 3045.2,295.8 "/>
<rect x="3470.2" y="-1384.1" class="st3" width="254.4" height="254.4"/>
<g>
	<g>
		<path class="st4" d="M3509.9-1244.1l4.4-5.3c2.8,2.3,6,3.4,9.3,3.4c2.1,0,3.3-0.7,3.3-2v-0.1c0-1.2-0.9-1.8-4.8-2.7
			c-6.1-1.4-10.8-3.1-10.8-9v-0.1c0-5.3,4.2-9.2,11.1-9.2c4.9,0,8.7,1.3,11.8,3.8l-4,5.6c-2.6-1.8-5.5-2.8-8-2.8
			c-1.9,0-2.9,0.8-2.9,1.8v0.1c0,1.3,1,1.9,5,2.8c6.6,1.4,10.7,3.6,10.7,8.9v0.1c0,5.9-4.6,9.3-11.6,9.3
			C3518.2-1239.4,3513.4-1241,3509.9-1244.1z"/>
		<path class="st4" d="M3544.9-1261.6h-8.6v-7h25.1v7h-8.6v21.7h-7.9V-1261.6z"/>
		<path class="st4" d="M3562.7-1254.1L3562.7-1254.1c0-8.3,6.6-15,15.5-15c8.8,0,15.4,6.6,15.4,14.8v0.1c0,8.2-6.6,14.9-15.5,14.9
			C3569.3-1239.3,3562.7-1245.9,3562.7-1254.1z M3585.5-1254.1L3585.5-1254.1c0-4.2-3-7.8-7.4-7.8c-4.3,0-7.2,3.5-7.2,7.7v0.1
			c0,4.1,3,7.7,7.3,7.7C3582.6-1246.5,3585.5-1250,3585.5-1254.1z"/>
		<path class="st4" d="M3597.7-1268.5h13.6c4.4,0,7.4,1.1,9.3,3.1c1.7,1.6,2.5,3.8,2.5,6.7v0.1c0,4.4-2.3,7.3-5.9,8.8l6.8,10h-9.2
			l-5.8-8.7h-0.1h-3.4v8.7h-7.9V-1268.5z M3610.9-1254.8c2.7,0,4.3-1.3,4.3-3.4v-0.1c0-2.3-1.6-3.4-4.3-3.4h-5.2v6.9H3610.9z"/>
		<path class="st4" d="M3634.4-1250.6l-10.9-17.9h9.1l5.9,10.4l5.9-10.4h8.9l-10.9,17.8v10.9h-8V-1250.6z"/>
	</g>
	<path class="st4" d="M3680.5-1276.5v0.1c0,2.2-1.8,4-4,4l0,0c-2.2,0-4-1.8-4-4v-0.1c0-2.2,1.8-4,4-4l0,0
		C3678.7-1280.5,3680.5-1278.7,3680.5-1276.5z M3668.7-1276.5v0.1c0,2.2-1.8,4-4,4l0,0c-2.2,0-4-1.8-4-4v-0.1c0-2.2,1.8-4,4-4l0,0
		C3666.9-1280.5,3668.7-1278.7,3668.7-1276.5z"/>
	<path class="st4" d="M3684.9-1268.6v13.1c0,10.2-5.9,16.2-14.2,16.2h-0.1c-8.3,0-14.4-6-14.4-16.3v-12.9H3684.9z M3663.3-1255.4
		c0,4.8,2.6,7.9,7.2,7.9h0.1c4.6,0,7.2-3.2,7.2-7.9v-6.3h-14.6V-1255.4z"/>
</g>
<g>
	<g>
		<rect x="2315.7" y="-881.4" class="st5" width="222" height="55"/>
		<text transform="matrix(1 0 0 1 2386.5037 -844.6343)" style="fill:#DE2127; font-family:'Anton-Regular'; font-size:24px;">REGISTER</text>
	</g>
</g>
<g>
	<rect x="2255.5" y="-1156.9" class="st1" width="347.9" height="110.4"/>
	<g>
		<rect x="2290.5" y="-1104.2" class="st2" width="268.8" height="111.3"/>
		<rect x="2299.5" y="-1116.2" class="st6" width="268.8" height="111.3"/>
	</g>
	<path class="st7" d="M2532.8-1090.3v0.1c0,2.6-2.1,4.8-4.8,4.8l0,0c-2.6,0-4.8-2.1-4.8-4.8v-0.1c0-2.6,2.1-4.8,4.8-4.8l0,0
		C2530.7-1095.1,2532.8-1092.9,2532.8-1090.3z M2518.7-1090.3v0.1c0,2.6-2.1,4.8-4.8,4.8l0,0c-2.6,0-4.8-2.1-4.8-4.8v-0.1
		c0-2.6,2.1-4.8,4.8-4.8l0,0C2516.6-1095.1,2518.7-1092.9,2518.7-1090.3z"/>
	<g>
		<path class="st7" d="M2329.8-1048.5l5.3-6.3c3.4,2.7,7.1,4.1,11.1,4.1c2.5,0,3.9-0.9,3.9-2.3v-0.1c0-1.4-1.1-2.2-5.8-3.3
			c-7.3-1.7-12.9-3.7-12.9-10.7v-0.1c0-6.3,5-10.9,13.2-10.9c5.8,0,10.3,1.6,14,4.5l-4.7,6.7c-3.1-2.2-6.5-3.4-9.6-3.4
			c-2.3,0-3.4,1-3.4,2.2v0.1c0,1.6,1.2,2.2,5.9,3.3c7.8,1.7,12.7,4.2,12.7,10.6v0.1c0,7-5.5,11.1-13.8,11.1
			C2339.7-1042.9,2334-1044.8,2329.8-1048.5z"/>
		<path class="st7" d="M2371.5-1069.3h-10.2v-8.3h29.9v8.3h-10.2v25.8h-9.5V-1069.3z"/>
		<path class="st7" d="M2392.7-1060.4L2392.7-1060.4c0-9.9,7.9-17.8,18.4-17.8c10.5,0,18.3,7.8,18.3,17.6v0.1
			c0,9.8-7.9,17.7-18.4,17.7S2392.7-1050.6,2392.7-1060.4z M2419.8-1060.4L2419.8-1060.4c0-5-3.6-9.3-8.8-9.3
			c-5.2,0-8.6,4.2-8.6,9.1v0.1c0,4.9,3.6,9.2,8.7,9.2C2416.3-1051.3,2419.8-1055.5,2419.8-1060.4z"/>
		<path class="st7" d="M2434.3-1077.6h16.1c5.2,0,8.8,1.4,11.1,3.7c2,1.9,3,4.6,3,7.9v0.1c0,5.2-2.8,8.7-7,10.5l8.1,11.9h-10.9
			l-6.9-10.3h-0.1h-4v10.3h-9.5V-1077.6z M2450-1061.2c3.2,0,5.1-1.6,5.1-4v-0.1c0-2.7-1.9-4-5.1-4h-6.2v8.2H2450z"/>
		<path class="st7" d="M2478-1056.2l-13-21.3h10.8l7,12.4l7.1-12.4h10.6l-13,21.2v12.9h-9.5V-1056.2z"/>
	</g>
	<path class="st7" d="M2538.1-1077.6v15.6c0,12.2-7,19.2-16.9,19.2h-0.1c-9.8,0-17.2-7.2-17.2-19.4v-15.4H2538.1z M2512.4-1061.9
		c0,5.7,3.1,9.4,8.6,9.4h0.1c5.5,0,8.6-3.8,8.6-9.4v-7.5h-17.3V-1061.9z"/>
</g>
<g>
	<rect x="2683.7" y="-1176.9" class="st1" width="347.9" height="110.4"/>
	<g>
		<rect x="2718.8" y="-1124.2" class="st2" width="268.8" height="111.3"/>
		<rect x="2727.8" y="-1136.2" class="st6" width="268.8" height="111.3"/>
	</g>
	<path class="st7" d="M2961.1-1110.3v0.1c0,2.6-2.1,4.8-4.8,4.8l0,0c-2.6,0-4.8-2.1-4.8-4.8v-0.1c0-2.6,2.1-4.8,4.8-4.8l0,0
		C2958.9-1115.1,2961.1-1112.9,2961.1-1110.3z M2947-1110.3v0.1c0,2.6-2.1,4.8-4.8,4.8l0,0c-2.6,0-4.8-2.1-4.8-4.8v-0.1
		c0-2.6,2.1-4.8,4.8-4.8l0,0C2944.9-1115.1,2947-1112.9,2947-1110.3z"/>
	<g>
		<path class="st7" d="M2758-1068.5l5.3-6.3c3.4,2.7,7.1,4.1,11.1,4.1c2.5,0,3.9-0.9,3.9-2.3v-0.1c0-1.4-1.1-2.2-5.8-3.3
			c-7.3-1.7-12.9-3.7-12.9-10.7v-0.1c0-6.3,5-10.9,13.2-10.9c5.8,0,10.3,1.6,14,4.5l-4.7,6.7c-3.1-2.2-6.5-3.4-9.6-3.4
			c-2.3,0-3.4,1-3.4,2.2v0.1c0,1.6,1.2,2.2,5.9,3.3c7.8,1.7,12.7,4.2,12.7,10.6v0.1c0,7-5.5,11.1-13.8,11.1
			C2768-1062.9,2762.2-1064.8,2758-1068.5z"/>
		<path class="st7" d="M2799.7-1089.3h-10.2v-8.3h29.9v8.3h-10.2v25.8h-9.5V-1089.3z"/>
		<path class="st7" d="M2820.9-1080.4L2820.9-1080.4c0-9.9,7.9-17.8,18.4-17.8c10.5,0,18.3,7.8,18.3,17.6v0.1
			c0,9.8-7.9,17.7-18.4,17.7S2820.9-1070.6,2820.9-1080.4z M2848-1080.4L2848-1080.4c0-5-3.6-9.3-8.8-9.3c-5.2,0-8.6,4.2-8.6,9.1
			v0.1c0,4.9,3.6,9.2,8.7,9.2C2844.6-1071.3,2848-1075.5,2848-1080.4z"/>
		<path class="st7" d="M2862.6-1097.6h16.1c5.2,0,8.8,1.4,11.1,3.7c2,1.9,3,4.6,3,7.9v0.1c0,5.2-2.8,8.7-7,10.5l8.1,11.9H2883
			l-6.9-10.3h-0.1h-4v10.3h-9.5V-1097.6z M2878.3-1081.2c3.2,0,5.1-1.6,5.1-4v-0.1c0-2.7-1.9-4-5.1-4h-6.2v8.2H2878.3z"/>
		<path class="st7" d="M2906.2-1076.2l-13-21.3h10.8l7,12.4l7.1-12.4h10.6l-13,21.2v12.9h-9.5V-1076.2z"/>
	</g>
	<path class="st7" d="M2966.3-1097.6v15.6c0,12.2-7,19.2-16.9,19.2h-0.1c-9.8,0-17.2-7.2-17.2-19.4v-15.4H2966.3z M2940.6-1081.9
		c0,5.7,3.1,9.4,8.6,9.4h0.1c5.5,0,8.6-3.8,8.6-9.4v-7.5h-17.3V-1081.9z"/>
</g>
<rect x="1542.2" y="-1195.4" class="st3" width="375" height="667"/>
<polygon class="st0" points="1917.2,-528.4 1542.2,-528.4 1542.2,-568 1917.2,-636.2 "/>
<g>
	<rect x="1555.7" y="-1176.9" class="st1" width="347.9" height="110.4"/>
	<g>
		<rect x="1590.8" y="-1124.2" class="st2" width="268.8" height="111.3"/>
		<rect x="1599.8" y="-1136.2" class="st6" width="268.8" height="111.3"/>
	</g>
	<path class="st7" d="M1833.1-1110.3v0.1c0,2.6-2.1,4.8-4.8,4.8l0,0c-2.6,0-4.8-2.1-4.8-4.8v-0.1c0-2.6,2.1-4.8,4.8-4.8l0,0
		C1830.9-1115.1,1833.1-1112.9,1833.1-1110.3z M1819-1110.3v0.1c0,2.6-2.1,4.8-4.8,4.8l0,0c-2.6,0-4.8-2.1-4.8-4.8v-0.1
		c0-2.6,2.1-4.8,4.8-4.8l0,0C1816.9-1115.1,1819-1112.9,1819-1110.3z"/>
	<g>
		<path class="st7" d="M1630-1068.5l5.3-6.3c3.4,2.7,7.1,4.1,11.1,4.1c2.5,0,3.9-0.9,3.9-2.3v-0.1c0-1.4-1.1-2.2-5.8-3.3
			c-7.3-1.7-12.9-3.7-12.9-10.7v-0.1c0-6.3,5-10.9,13.2-10.9c5.8,0,10.3,1.6,14,4.5l-4.7,6.7c-3.1-2.2-6.5-3.4-9.6-3.4
			c-2.3,0-3.4,1-3.4,2.2v0.1c0,1.6,1.2,2.2,5.9,3.3c7.8,1.7,12.7,4.2,12.7,10.6v0.1c0,7-5.5,11.1-13.8,11.1
			C1640-1062.9,1634.2-1064.8,1630-1068.5z"/>
		<path class="st7" d="M1671.7-1089.3h-10.2v-8.3h29.9v8.3h-10.2v25.8h-9.5V-1089.3z"/>
		<path class="st7" d="M1692.9-1080.4L1692.9-1080.4c0-9.9,7.9-17.8,18.4-17.8s18.3,7.8,18.3,17.6v0.1c0,9.8-7.9,17.7-18.4,17.7
			C1700.7-1062.8,1692.9-1070.6,1692.9-1080.4z M1720-1080.4L1720-1080.4c0-5-3.6-9.3-8.8-9.3c-5.2,0-8.6,4.2-8.6,9.1v0.1
			c0,4.9,3.6,9.2,8.7,9.2C1716.6-1071.3,1720-1075.5,1720-1080.4z"/>
		<path class="st7" d="M1734.6-1097.6h16.1c5.2,0,8.8,1.4,11.1,3.7c2,1.9,3,4.6,3,7.9v0.1c0,5.2-2.8,8.7-7,10.5l8.1,11.9H1755
			l-6.9-10.3h-0.1h-4v10.3h-9.5V-1097.6z M1750.3-1081.2c3.2,0,5.1-1.6,5.1-4v-0.1c0-2.7-1.9-4-5.1-4h-6.2v8.2H1750.3z"/>
		<path class="st7" d="M1778.2-1076.2l-13-21.3h10.8l7,12.4l7.1-12.4h10.6l-13,21.2v12.9h-9.5V-1076.2z"/>
	</g>
	<path class="st7" d="M1838.3-1097.6v15.6c0,12.2-7,19.2-16.9,19.2h-0.1c-9.8,0-17.2-7.2-17.2-19.4v-15.4H1838.3z M1812.6-1081.9
		c0,5.7,3.1,9.4,8.6,9.4h0.1c5.5,0,8.6-3.8,8.6-9.4v-7.5h-17.3V-1081.9z"/>
</g>
<g>
	<g>
		<path class="st2" d="M3214.6-843.6l4.9-5.8c3.1,2.5,6.6,3.8,10.2,3.8c2.3,0,3.6-0.8,3.6-2.2v-0.1c0-1.3-1-2-5.3-3
			c-6.7-1.5-11.9-3.4-11.9-9.9v-0.1c0-5.8,4.6-10.1,12.2-10.1c5.3,0,9.5,1.4,12.9,4.2l-4.4,6.2c-2.9-2-6-3.1-8.8-3.1
			c-2.1,0-3.1,0.9-3.1,2v0.1c0,1.4,1.1,2.1,5.4,3.1c7.2,1.6,11.7,3.9,11.7,9.8v0.1c0,6.4-5.1,10.2-12.7,10.2
			C3223.7-838.4,3218.4-840.1,3214.6-843.6z"/>
		<path class="st2" d="M3253.1-862.8h-9.4v-7.6h27.6v7.6h-9.4v23.8h-8.7V-862.8z"/>
		<path class="st2" d="M3272.6-854.6L3272.6-854.6c0-9.1,7.3-16.5,17-16.5s16.9,7.2,16.9,16.3v0.1c0,9-7.3,16.4-17,16.4
			S3272.6-845.5,3272.6-854.6z M3297.6-854.6L3297.6-854.6c0-4.6-3.3-8.6-8.1-8.6c-4.8,0-8,3.9-8,8.4v0.1c0,4.5,3.3,8.5,8,8.5
			C3294.4-846.2,3297.6-850,3297.6-854.6z"/>
		<path class="st2" d="M3311-870.4h14.9c4.8,0,8.1,1.3,10.2,3.4c1.8,1.8,2.8,4.2,2.8,7.3v0.1c0,4.8-2.6,8-6.5,9.7l7.5,11h-10.1
			l-6.3-9.5h-0.1h-3.7v9.5h-8.7V-870.4z M3325.5-855.3c3,0,4.7-1.4,4.7-3.7v-0.1c0-2.5-1.8-3.7-4.7-3.7h-5.7v7.6H3325.5z"/>
		<path class="st2" d="M3351.3-850.7l-12-19.7h9.9l6.5,11.5l6.5-11.5h9.8l-12,19.6v11.9h-8.8V-850.7z"/>
	</g>
	<path class="st2" d="M3401.9-881.1v0.1c0,2.4-2,4.4-4.4,4.4l0,0c-2.4,0-4.4-2-4.4-4.4v-0.1c0-2.4,2-4.4,4.4-4.4l0,0
		C3399.9-885.5,3401.9-883.5,3401.9-881.1z M3388.9-881.1v0.1c0,2.4-2,4.4-4.4,4.4l0,0c-2.4,0-4.4-2-4.4-4.4v-0.1
		c0-2.4,2-4.4,4.4-4.4l0,0C3386.9-885.5,3388.9-883.5,3388.9-881.1z"/>
	<path class="st2" d="M3406.8-870.4v14.4c0,11.2-6.5,17.8-15.6,17.8h-0.1c-9.1,0-15.8-6.6-15.8-17.9v-14.2H3406.8z M3383-855.9
		c0,5.2,2.9,8.7,8,8.7h0.1c5,0,8-3.5,8-8.7v-6.9h-16V-855.9z"/>
</g>
<text transform="matrix(1 0 0 1 3674.354 -847.1543)" class="st1" style="font-family:'Gotham-Light'; font-size:17.906px;">Login</text>
<text transform="matrix(1 0 0 1 3655.8547 -755.1543)" class="st1" style="font-family:'Gotham-Bold'; font-size:17.906px;">REGISTER</text>
<rect x="3620.7" y="-875.7" class="st8" width="156" height="46"/>
<g>
	<text transform="matrix(1 0 0 1 2527.0496 -263.2953)" class="st1" style="font-family:'Gotham-Light'; font-size:17.906px;">Login</text>
	<rect x="2473.4" y="-291.9" class="st8" width="156" height="46"/>
</g>
<line class="st8" x1="3586.2" y1="-800" x2="3817.2" y2="-800"/>
<text transform="matrix(1 0 0 1 855.7957 -191.5844)" class="st0" style="font-family:'GothamHTF-Black'; font-size:44.8753px;">COMMENTS</text>
<text transform="matrix(1 0 0 1 493.304 -191.5844)" class="st0" style="font-family:'GothamHTF-Black'; font-size:44.8753px;">REVIEWS</text>
<text transform="matrix(1 0 0 1 2074.4578 176.0555)" class="st0" style="font-family:'GothamHTF-Black'; font-size:44.8753px;">PROFILE</text>
<text transform="matrix(1 0 0 1 1934.9534 -7.9445)" class="st0" style="font-family:'GothamHTF-Black'; font-size:44.8753px;">SETTINGS</text>
<text transform="matrix(1 0 0 1 1552.8386 -17.5844)" class="st0" style="font-family:'GothamHTF-Black'; font-size:44.8753px;">HOME</text>
<text transform="matrix(1 0 0 1 1242.0115 -191.5844)" class="st0" style="font-family:'GothamHTF-Black'; font-size:44.8753px;">CONTACT</text>
<text transform="matrix(1 0 0 1 124.0076 -191.5844)" class="st0" style="font-family:'GothamHTF-Black'; font-size:44.8753px;">TOPICS</text>
<line class="st9" x1="88.1" y1="50" x2="325.9" y2="50"/>
</svg>
