<?xml version="1.0" encoding="utf-8"?>
<!-- Generator: Adobe Illustrator 22.0.1, SVG Export Plug-In . SVG Version: 6.00 Build 0)  -->
<svg version="1.0" id="Layer_1" xmlns="http://www.w3.org/2000/svg" xmlns:xlink="http://www.w3.org/1999/xlink" x="0px" y="0px"
	 viewBox="0 0 375 667" style="enable-background:new 0 0 375 667;" xml:space="preserve">
<style type="text/css">
	.st0{fill:#0F277B;}
	.st1{fill:#F31E76;}
	.st2{fill:#F4C73D;}
	.st3{fill:#FFC0C0;}
	.st4{fill:#9F4CD6;}
	.st5{fill:#FFFFFF;stroke:#DE2127;stroke-width:3;stroke-miterlimit:10;}
	.st6{fill:#FFFFFF;stroke:#F4C73D;stroke-width:5.4749;stroke-miterlimit:10;}
	.st7{fill:#1D90D6;}
	.st8{font-family:'Gotham-Light';}
	.st9{font-size:17.906px;}
	.st10{font-family:'Gotham-Bold';}
	.st11{fill:none;stroke:#F31E76;stroke-miterlimit:10;}
</style>
<rect x="444" y="810.3" class="st0" width="283.1" height="260.9"/>
<rect x="473.1" y="828.2" class="st1" width="225" height="225"/>
<g>
	<g>
		<path class="st2" d="M489.5,959l4.9-5.8c3.1,2.5,6.6,3.8,10.2,3.8c2.3,0,3.6-0.8,3.6-2.2v-0.1c0-1.3-1-2-5.3-3
			c-6.7-1.5-11.9-3.4-11.9-9.9v-0.1c0-5.8,4.6-10.1,12.2-10.1c5.3,0,9.5,1.4,12.9,4.2l-4.4,6.2c-2.9-2-6-3.1-8.8-3.1
			c-2.1,0-3.1,0.9-3.1,2v0.1c0,1.4,1.1,2.1,5.4,3.1c7.2,1.6,11.7,3.9,11.7,9.8v0.1c0,6.4-5.1,10.2-12.7,10.2
			C498.6,964.2,493.3,962.5,489.5,959z"/>
		<path class="st2" d="M528,939.8h-9.4v-7.6h27.6v7.6h-9.4v23.8H528V939.8z"/>
		<path class="st2" d="M547.5,948L547.5,948c0-9.1,7.3-16.5,17-16.5s16.9,7.2,16.9,16.3v0.1c0,9-7.3,16.4-17,16.4
			C554.7,964.3,547.5,957.1,547.5,948z M572.5,948L572.5,948c0-4.6-3.3-8.6-8.1-8.6c-4.8,0-8,3.9-8,8.4v0.1c0,4.5,3.3,8.5,8,8.5
			C569.3,956.4,572.5,952.6,572.5,948z"/>
		<path class="st2" d="M585.9,932.2h14.9c4.8,0,8.1,1.3,10.2,3.4c1.8,1.8,2.8,4.2,2.8,7.3v0.1c0,4.8-2.6,8-6.5,9.7l7.5,11h-10.1
			l-6.3-9.5h-0.1h-3.7v9.5h-8.7V932.2z M600.4,947.3c3,0,4.7-1.4,4.7-3.7v-0.1c0-2.5-1.8-3.7-4.7-3.7h-5.7v7.6H600.4z"/>
		<path class="st2" d="M626.2,951.9l-12-19.7h9.9l6.5,11.5l6.5-11.5h9.8l-12,19.6v11.9h-8.8V951.9z"/>
	</g>
	<path class="st2" d="M676.8,921.5v0.1c0,2.4-2,4.4-4.4,4.4l0,0c-2.4,0-4.4-2-4.4-4.4v-0.1c0-2.4,2-4.4,4.4-4.4l0,0
		C674.8,917.1,676.8,919.1,676.8,921.5z M663.8,921.5v0.1c0,2.4-2,4.4-4.4,4.4l0,0c-2.4,0-4.4-2-4.4-4.4v-0.1c0-2.4,2-4.4,4.4-4.4
		l0,0C661.8,917.1,663.8,919.1,663.8,921.5z"/>
	<path class="st2" d="M681.6,932.2v14.4c0,11.2-6.5,17.8-15.6,17.8H666c-9.1,0-15.8-6.6-15.8-17.9v-14.2H681.6z M657.9,946.7
		c0,5.2,2.9,8.7,8,8.7h0.1c5,0,8-3.5,8-8.7v-6.9h-16V946.7z"/>
</g>
<rect x="-431" class="st2" width="375" height="667"/>
<rect class="st3" width="375" height="667"/>
<polygon class="st0" points="375,667 0,667 0,627.4 375,559.1 "/>
<rect x="800" y="-188.7" class="st3" width="254.4" height="254.4"/>
<g>
	<g>
		<path class="st4" d="M821.1-46.1l5.3-6.3c3.4,2.7,7.1,4.1,11.1,4.1c2.5,0,3.9-0.9,3.9-2.3v-0.1c0-1.4-1.1-2.2-5.8-3.3
			c-7.3-1.7-12.9-3.7-12.9-10.7v-0.1c0-6.3,5-10.9,13.2-10.9c5.8,0,10.3,1.6,14,4.5l-4.7,6.7c-3.1-2.2-6.5-3.4-9.6-3.4
			c-2.3,0-3.4,1-3.4,2.2v0.1c0,1.6,1.2,2.2,5.9,3.3c7.8,1.7,12.7,4.2,12.7,10.6v0.1c0,7-5.5,11.1-13.8,11.1
			C831-40.5,825.3-42.4,821.1-46.1z"/>
		<path class="st4" d="M862.8-66.9h-10.2v-8.3h29.9v8.3h-10.2V-41h-9.5V-66.9z"/>
		<path class="st4" d="M884-58L884-58c0-9.9,7.9-17.8,18.4-17.8c10.5,0,18.3,7.8,18.3,17.6v0.1c0,9.8-7.9,17.7-18.4,17.7
			C891.8-40.4,884-48.2,884-58z M911.1-58L911.1-58c0-5-3.6-9.3-8.8-9.3c-5.2,0-8.6,4.2-8.6,9.1v0.1c0,4.9,3.6,9.2,8.7,9.2
			C907.6-48.9,911.1-53.1,911.1-58z"/>
		<path class="st4" d="M925.6-75.1h16.1c5.2,0,8.8,1.4,11.1,3.7c2,1.9,3,4.6,3,7.9v0.1c0,5.2-2.8,8.7-7,10.5L957-41h-10.9l-6.9-10.3
			h-0.1h-4V-41h-9.5V-75.1z M941.3-58.8c3.2,0,5.1-1.6,5.1-4v-0.1c0-2.7-1.9-4-5.1-4h-6.2v8.2H941.3z"/>
		<path class="st4" d="M969.3-53.8l-13-21.3h10.8l7,12.4l7.1-12.4h10.6l-13,21.2V-41h-9.5V-53.8z"/>
	</g>
	<path class="st4" d="M1024.1-84.6v0.1c0,2.6-2.1,4.8-4.8,4.8h0c-2.6,0-4.8-2.1-4.8-4.8v-0.1c0-2.6,2.1-4.8,4.8-4.8h0
		C1022-89.4,1024.1-87.2,1024.1-84.6z M1010-84.6v0.1c0,2.6-2.1,4.8-4.8,4.8l0,0c-2.6,0-4.8-2.1-4.8-4.8v-0.1c0-2.6,2.1-4.8,4.8-4.8
		l0,0C1007.9-89.4,1010-87.2,1010-84.6z"/>
	<path class="st4" d="M1029.4-75.2v15.6c0,12.2-7,19.2-16.9,19.2h-0.1c-9.8,0-17.2-7.2-17.2-19.4v-15.4H1029.4z M1003.6-59.5
		c0,5.7,3.1,9.4,8.6,9.4h0.1c5.5,0,8.6-3.8,8.6-9.4v-7.5h-17.3V-59.5z"/>
</g>
<g>
	<g>
		<rect x="-354.5" y="314" class="st5" width="222" height="55"/>
		<text transform="matrix(1 0 0 1 -283.663 350.7433)" style="fill:#DE2127; font-family:'Anton-Regular'; font-size:24px;">REGISTER</text>
	</g>
</g>
<g>
	<rect x="-414.7" y="38.5" class="st1" width="347.9" height="110.4"/>
	<g>
		<rect x="-379.6" y="91.2" class="st2" width="268.8" height="111.3"/>
		<rect x="-370.6" y="79.2" class="st6" width="268.8" height="111.3"/>
	</g>
	<path class="st7" d="M-137.3,105.1v0.1c0,2.6-2.1,4.8-4.8,4.8h0c-2.6,0-4.8-2.1-4.8-4.8v-0.1c0-2.6,2.1-4.8,4.8-4.8h0
		C-139.5,100.3-137.3,102.5-137.3,105.1z M-151.4,105.1v0.1c0,2.6-2.1,4.8-4.8,4.8l0,0c-2.6,0-4.8-2.1-4.8-4.8v-0.1
		c0-2.6,2.1-4.8,4.8-4.8l0,0C-153.5,100.3-151.4,102.5-151.4,105.1z"/>
	<g>
		<path class="st7" d="M-340.4,146.8l5.3-6.3c3.4,2.7,7.1,4.1,11.1,4.1c2.5,0,3.9-0.9,3.9-2.3v-0.1c0-1.4-1.1-2.2-5.8-3.3
			c-7.3-1.7-12.9-3.7-12.9-10.7v-0.1c0-6.3,5-10.9,13.2-10.9c5.8,0,10.3,1.6,14,4.5l-4.7,6.7c-3.1-2.2-6.5-3.4-9.6-3.4
			c-2.3,0-3.4,1-3.4,2.2v0.1c0,1.6,1.2,2.2,5.9,3.3c7.8,1.7,12.7,4.2,12.7,10.6v0.1c0,7-5.5,11.1-13.8,11.1
			C-330.4,152.5-336.2,150.6-340.4,146.8z"/>
		<path class="st7" d="M-298.7,126.1h-10.2v-8.3h29.9v8.3h-10.2v25.8h-9.5V126.1z"/>
		<path class="st7" d="M-277.5,134.9L-277.5,134.9c0-9.9,7.9-17.8,18.4-17.8c10.5,0,18.3,7.8,18.3,17.6v0.1
			c0,9.8-7.9,17.7-18.4,17.7C-269.7,152.6-277.5,144.7-277.5,134.9z M-250.4,134.9L-250.4,134.9c0-5-3.6-9.3-8.8-9.3
			c-5.2,0-8.6,4.2-8.6,9.1v0.1c0,4.9,3.6,9.2,8.7,9.2C-253.8,144.1-250.4,139.9-250.4,134.9z"/>
		<path class="st7" d="M-235.8,117.8h16.1c5.2,0,8.8,1.4,11.1,3.7c2,1.9,3,4.6,3,7.9v0.1c0,5.2-2.8,8.7-7,10.5l8.1,11.9h-10.9
			l-6.9-10.3h-0.1h-4v10.3h-9.5V117.8z M-220.1,134.2c3.2,0,5.1-1.6,5.1-4V130c0-2.7-1.9-4-5.1-4h-6.2v8.2H-220.1z"/>
		<path class="st7" d="M-192.2,139.1l-13-21.3h10.8l7,12.4l7.1-12.4h10.6l-13,21.2v12.9h-9.5V139.1z"/>
	</g>
	<path class="st7" d="M-132.1,117.8v15.6c0,12.2-7,19.2-16.9,19.2h-0.1c-9.8,0-17.2-7.2-17.2-19.4v-15.4H-132.1z M-157.8,133.5
		c0,5.7,3.1,9.4,8.6,9.4h0.1c5.5,0,8.6-3.8,8.6-9.4V126h-17.3V133.5z"/>
</g>
<g>
	<rect x="13.5" y="18.5" class="st1" width="347.9" height="110.4"/>
	<g>
		<rect x="48.6" y="71.2" class="st2" width="268.8" height="111.3"/>
		<rect x="57.6" y="59.2" class="st6" width="268.8" height="111.3"/>
	</g>
	<path class="st7" d="M290.9,85.1v0.1c0,2.6-2.1,4.8-4.8,4.8l0,0c-2.6,0-4.8-2.1-4.8-4.8v-0.1c0-2.6,2.1-4.8,4.8-4.8l0,0
		C288.8,80.3,290.9,82.5,290.9,85.1z M276.8,85.1v0.1c0,2.6-2.1,4.8-4.8,4.8l0,0c-2.6,0-4.8-2.1-4.8-4.8v-0.1c0-2.6,2.1-4.8,4.8-4.8
		l0,0C274.7,80.3,276.8,82.5,276.8,85.1z"/>
	<g>
		<path class="st7" d="M87.8,126.8l5.3-6.3c3.4,2.7,7.1,4.1,11.1,4.1c2.5,0,3.9-0.9,3.9-2.3v-0.1c0-1.4-1.1-2.2-5.8-3.3
			c-7.3-1.7-12.9-3.7-12.9-10.7v-0.1c0-6.3,5-10.9,13.2-10.9c5.8,0,10.3,1.6,14,4.5l-4.7,6.7c-3.1-2.2-6.5-3.4-9.6-3.4
			c-2.3,0-3.4,1-3.4,2.2v0.1c0,1.6,1.2,2.2,5.9,3.3c7.8,1.7,12.7,4.2,12.7,10.6v0.1c0,7-5.5,11.1-13.8,11.1
			C97.8,132.5,92,130.6,87.8,126.8z"/>
		<path class="st7" d="M129.6,106.1h-10.2v-8.3h29.9v8.3H139v25.8h-9.5V106.1z"/>
		<path class="st7" d="M150.8,114.9L150.8,114.9c0-9.9,7.9-17.8,18.4-17.8c10.5,0,18.3,7.8,18.3,17.6v0.1c0,9.8-7.9,17.7-18.4,17.7
			C158.5,132.6,150.8,124.7,150.8,114.9z M177.8,114.9L177.8,114.9c0-5-3.6-9.3-8.8-9.3c-5.2,0-8.6,4.2-8.6,9.1v0.1
			c0,4.9,3.6,9.2,8.7,9.2C174.4,124.1,177.8,119.9,177.8,114.9z"/>
		<path class="st7" d="M192.4,97.8h16.1c5.2,0,8.8,1.4,11.1,3.7c2,1.9,3,4.6,3,7.9v0.1c0,5.2-2.8,8.7-7,10.5l8.1,11.9h-10.9
			l-6.9-10.3h-0.1h-4v10.3h-9.5V97.8z M208.1,114.2c3.2,0,5.1-1.6,5.1-4V110c0-2.7-1.9-4-5.1-4h-6.2v8.2H208.1z"/>
		<path class="st7" d="M236.1,119.1l-13-21.3h10.8l7,12.4l7.1-12.4h10.6l-13,21.2v12.9h-9.5V119.1z"/>
	</g>
	<path class="st7" d="M296.2,97.8v15.6c0,12.2-7,19.2-16.9,19.2h-0.1c-9.8,0-17.2-7.2-17.2-19.4V97.8H296.2z M270.4,113.5
		c0,5.7,3.1,9.4,8.6,9.4h0.1c5.5,0,8.6-3.8,8.6-9.4V106h-17.3V113.5z"/>
</g>
<g>
	<g>
		<path class="st2" d="M544.4,351.8l4.9-5.8c3.1,2.5,6.6,3.8,10.2,3.8c2.3,0,3.6-0.8,3.6-2.2v-0.1c0-1.3-1-2-5.3-3
			c-6.7-1.5-11.9-3.4-11.9-9.9v-0.1c0-5.8,4.6-10.1,12.2-10.1c5.3,0,9.5,1.4,12.9,4.2l-4.4,6.2c-2.9-2-6-3.1-8.8-3.1
			c-2.1,0-3.1,0.9-3.1,2v0.1c0,1.4,1.1,2.1,5.4,3.1c7.2,1.6,11.7,3.9,11.7,9.8v0.1c0,6.4-5.1,10.2-12.7,10.2
			C553.6,357,548.3,355.2,544.4,351.8z"/>
		<path class="st2" d="M582.9,332.6h-9.4V325h27.6v7.6h-9.4v23.8h-8.7V332.6z"/>
		<path class="st2" d="M602.4,340.8L602.4,340.8c0-9.1,7.3-16.5,17-16.5s16.9,7.2,16.9,16.3v0.1c0,9-7.3,16.4-17,16.4
			S602.4,349.8,602.4,340.8z M627.4,340.8L627.4,340.8c0-4.6-3.3-8.6-8.1-8.6c-4.8,0-8,3.9-8,8.4v0.1c0,4.5,3.3,8.5,8,8.5
			C624.2,349.2,627.4,345.3,627.4,340.8z"/>
		<path class="st2" d="M640.9,325h14.9c4.8,0,8.1,1.3,10.2,3.4c1.8,1.8,2.8,4.2,2.8,7.3v0.1c0,4.8-2.6,8-6.5,9.7l7.5,11h-10.1
			l-6.3-9.5h-0.1h-3.7v9.5h-8.7V325z M655.4,340.1c3,0,4.7-1.4,4.7-3.7v-0.1c0-2.5-1.8-3.7-4.7-3.7h-5.7v7.6H655.4z"/>
		<path class="st2" d="M681.2,344.7l-12-19.7h9.9l6.5,11.5l6.5-11.5h9.8l-12,19.6v11.9h-8.8V344.7z"/>
	</g>
	<path class="st2" d="M731.7,314.3v0.1c0,2.4-2,4.4-4.4,4.4l0,0c-2.4,0-4.4-2-4.4-4.4v-0.1c0-2.4,2-4.4,4.4-4.4l0,0
		C729.8,309.9,731.7,311.9,731.7,314.3z M718.7,314.3v0.1c0,2.4-2,4.4-4.4,4.4l0,0c-2.4,0-4.4-2-4.4-4.4v-0.1c0-2.4,2-4.4,4.4-4.4
		l0,0C716.8,309.9,718.7,311.9,718.7,314.3z"/>
	<path class="st2" d="M736.6,324.9v14.4c0,11.2-6.5,17.8-15.6,17.8h-0.1c-9.1,0-15.8-6.6-15.8-17.9v-14.2H736.6z M712.9,339.5
		c0,5.2,2.9,8.7,8,8.7h0.1c5,0,8-3.5,8-8.7v-6.9h-16V339.5z"/>
</g>
<text transform="matrix(1 0 0 1 160.1873 348.2233)" class="st1 st8 st9">Login</text>
<text transform="matrix(1 0 0 1 141.688 440.2233)" class="st1 st10 st9">REGISTER</text>
<rect x="106.5" y="319.6" class="st11" width="156" height="46"/>
<g>
	<text transform="matrix(1 0 0 1 -143.117 932.0823)" class="st1 st8 st9">Login</text>
	<rect x="-196.8" y="903.5" class="st11" width="156" height="46"/>
</g>
<line class="st11" x1="72" y1="395.4" x2="303" y2="395.4"/>
</svg>
