<?xml version="1.0" encoding="utf-8"?>
<!-- Generator: Adobe Illustrator 22.0.1, SVG Export Plug-In . SVG Version: 6.00 Build 0)  -->
<svg version="1.0" id="Layer_1" xmlns="http://www.w3.org/2000/svg" xmlns:xlink="http://www.w3.org/1999/xlink" x="0px" y="0px"
	 viewBox="0 0 175 58.2" style="enable-background:new 0 0 175 58.2;" xml:space="preserve">
<style type="text/css">
	.st0{fill:#0F277B;}
	.st1{fill:#F31E76;}
	.st2{fill:#F4C73D;}
	.st3{fill:#FFC0C0;}
	.st4{fill:#9F4CD6;}
	.st5{fill:#FFFFFF;stroke:#DE2127;stroke-width:3;stroke-miterlimit:10;}
	.st6{fill:#FFFFFF;stroke:#F4C73D;stroke-width:5.4749;stroke-miterlimit:10;}
	.st7{fill:#1D90D6;}
	.st8{fill:none;stroke:#F31E76;stroke-miterlimit:10;}
	.st9{font-family:'Gotham-Light';}
	.st10{font-size:17.906px;}
</style>
<rect x="650.3" y="-377.1" class="st0" width="283.1" height="260.9"/>
<rect x="679.4" y="-359.2" class="st1" width="225" height="225"/>
<g>
	<g>
		<path class="st2" d="M695.8-228.4l4.9-5.8c3.1,2.5,6.6,3.8,10.2,3.8c2.3,0,3.6-0.8,3.6-2.2v-0.1c0-1.3-1-2-5.3-3
			c-6.7-1.5-11.9-3.4-11.9-9.9v-0.1c0-5.8,4.6-10.1,12.2-10.1c5.3,0,9.5,1.4,12.9,4.2l-4.4,6.2c-2.9-2-6-3.1-8.8-3.1
			c-2.1,0-3.1,0.9-3.1,2v0.1c0,1.4,1.1,2.1,5.4,3.1c7.2,1.6,11.7,3.9,11.7,9.8v0.1c0,6.4-5.1,10.2-12.7,10.2
			C705-223.2,699.7-224.9,695.8-228.4z"/>
		<path class="st2" d="M734.3-247.5h-9.4v-7.6h27.6v7.6H743v23.8h-8.7V-247.5z"/>
		<path class="st2" d="M753.8-239.4L753.8-239.4c0-9.1,7.3-16.5,17-16.5s16.9,7.2,16.9,16.3v0.1c0,9-7.3,16.4-17,16.4
			S753.8-230.3,753.8-239.4z M778.8-239.4L778.8-239.4c0-4.6-3.3-8.6-8.1-8.6c-4.8,0-8,3.9-8,8.4v0.1c0,4.5,3.3,8.5,8,8.5
			C775.6-230.9,778.8-234.8,778.8-239.4z"/>
		<path class="st2" d="M792.3-255.2h14.9c4.8,0,8.1,1.3,10.2,3.4c1.8,1.8,2.8,4.2,2.8,7.3v0.1c0,4.8-2.6,8-6.5,9.7l7.5,11h-10.1
			l-6.3-9.5h-0.1H801v9.5h-8.7V-255.2z M806.7-240.1c3,0,4.7-1.4,4.7-3.7v-0.1c0-2.5-1.8-3.7-4.7-3.7H801v7.6H806.7z"/>
		<path class="st2" d="M832.5-235.5l-12-19.7h9.9l6.5,11.5l6.5-11.5h9.8l-12,19.6v11.9h-8.8V-235.5z"/>
	</g>
	<path class="st2" d="M883.1-265.9v0.1c0,2.4-2,4.4-4.4,4.4l0,0c-2.4,0-4.4-2-4.4-4.4v-0.1c0-2.4,2-4.4,4.4-4.4l0,0
		C881.1-270.2,883.1-268.3,883.1-265.9z M870.1-265.9v0.1c0,2.4-2,4.4-4.4,4.4l0,0c-2.4,0-4.4-2-4.4-4.4v-0.1c0-2.4,2-4.4,4.4-4.4
		l0,0C868.2-270.2,870.1-268.3,870.1-265.9z"/>
	<path class="st2" d="M888-255.2v14.4c0,11.2-6.5,17.8-15.6,17.8h-0.1c-9.1,0-15.8-6.6-15.8-17.9v-14.2H888z M864.2-240.7
		c0,5.2,2.9,8.7,8,8.7h0.1c5,0,8-3.5,8-8.7v-6.9h-16V-240.7z"/>
</g>
<rect x="-224.7" y="-1187.4" class="st2" width="375" height="667"/>
<rect x="206.3" y="-1187.4" class="st3" width="375" height="667"/>
<polygon class="st0" points="581.3,-520.4 206.3,-520.4 206.3,-560 581.3,-628.2 "/>
<rect x="1006.3" y="-1376.1" class="st3" width="254.4" height="254.4"/>
<g>
	<g>
		<path class="st4" d="M1027.4-1233.5l5.3-6.3c3.4,2.7,7.1,4.1,11.1,4.1c2.5,0,3.9-0.9,3.9-2.3v-0.1c0-1.4-1.1-2.2-5.8-3.3
			c-7.3-1.7-12.9-3.7-12.9-10.7v-0.1c0-6.3,5-10.9,13.2-10.9c5.8,0,10.3,1.6,14,4.5l-4.7,6.7c-3.1-2.2-6.5-3.4-9.6-3.4
			c-2.3,0-3.4,1-3.4,2.2v0.1c0,1.6,1.2,2.2,5.9,3.3c7.8,1.7,12.7,4.2,12.7,10.6v0.1c0,7-5.5,11.1-13.8,11.1
			C1037.3-1227.8,1031.6-1229.7,1027.4-1233.5z"/>
		<path class="st4" d="M1069.1-1254.2h-10.2v-8.3h29.9v8.3h-10.2v25.8h-9.5V-1254.2z"/>
		<path class="st4" d="M1090.3-1245.4L1090.3-1245.4c0-9.9,7.9-17.8,18.4-17.8c10.5,0,18.3,7.8,18.3,17.6v0.1
			c0,9.8-7.9,17.7-18.4,17.7S1090.3-1235.6,1090.3-1245.4z M1117.4-1245.4L1117.4-1245.4c0-5-3.6-9.3-8.8-9.3
			c-5.2,0-8.6,4.2-8.6,9.1v0.1c0,4.9,3.6,9.2,8.7,9.2C1113.9-1236.3,1117.4-1240.5,1117.4-1245.4z"/>
		<path class="st4" d="M1131.9-1262.5h16.1c5.2,0,8.8,1.4,11.1,3.7c2,1.9,3,4.6,3,7.9v0.1c0,5.2-2.8,8.7-7,10.5l8.1,11.9h-10.9
			l-6.9-10.3h-0.1h-4v10.3h-9.5V-1262.5z M1147.6-1246.2c3.2,0,5.1-1.6,5.1-4v-0.1c0-2.7-1.9-4-5.1-4h-6.2v8.2H1147.6z"/>
		<path class="st4" d="M1175.6-1241.2l-13-21.3h10.8l7,12.4l7.1-12.4h10.6l-13,21.2v12.9h-9.5V-1241.2z"/>
	</g>
	<path class="st4" d="M1230.4-1272v0.1c0,2.6-2.1,4.8-4.8,4.8l0,0c-2.6,0-4.8-2.1-4.8-4.8v-0.1c0-2.6,2.1-4.8,4.8-4.8l0,0
		C1228.3-1276.8,1230.4-1274.6,1230.4-1272z M1216.3-1272v0.1c0,2.6-2.1,4.8-4.8,4.8l0,0c-2.6,0-4.8-2.1-4.8-4.8v-0.1
		c0-2.6,2.1-4.8,4.8-4.8l0,0C1214.2-1276.8,1216.3-1274.6,1216.3-1272z"/>
	<path class="st4" d="M1235.7-1262.6v15.6c0,12.2-7,19.2-16.9,19.2h-0.1c-9.8,0-17.2-7.2-17.2-19.4v-15.4H1235.7z M1210-1246.8
		c0,5.7,3.1,9.4,8.6,9.4h0.1c5.5,0,8.6-3.8,8.6-9.4v-7.5H1210V-1246.8z"/>
</g>
<g>
	<g>
		<rect x="-148.2" y="-873.4" class="st5" width="222" height="55"/>
		<text transform="matrix(1 0 0 1 -77.3493 -836.6343)" style="fill:#DE2127; font-family:'Anton-Regular'; font-size:24px;">REGISTER</text>
	</g>
</g>
<g>
	<rect x="-208.4" y="-1148.9" class="st1" width="347.9" height="110.4"/>
	<g>
		<rect x="-173.3" y="-1096.2" class="st2" width="268.8" height="111.3"/>
		<rect x="-164.3" y="-1108.2" class="st6" width="268.8" height="111.3"/>
	</g>
	<path class="st7" d="M69-1082.3v0.1c0,2.6-2.1,4.8-4.8,4.8h0c-2.6,0-4.8-2.1-4.8-4.8v-0.1c0-2.6,2.1-4.8,4.8-4.8h0
		C66.8-1087.1,69-1084.9,69-1082.3z M54.9-1082.3v0.1c0,2.6-2.1,4.8-4.8,4.8h0c-2.6,0-4.8-2.1-4.8-4.8v-0.1c0-2.6,2.1-4.8,4.8-4.8h0
		C52.8-1087.1,54.9-1084.9,54.9-1082.3z"/>
	<g>
		<path class="st7" d="M-134.1-1040.5l5.3-6.3c3.4,2.7,7.1,4.1,11.1,4.1c2.5,0,3.9-0.9,3.9-2.3v-0.1c0-1.4-1.1-2.2-5.8-3.3
			c-7.3-1.7-12.9-3.7-12.9-10.7v-0.1c0-6.3,5-10.9,13.2-10.9c5.8,0,10.3,1.6,14,4.5l-4.7,6.7c-3.1-2.2-6.5-3.4-9.6-3.4
			c-2.3,0-3.4,1-3.4,2.2v0.1c0,1.6,1.2,2.2,5.9,3.3c7.8,1.7,12.7,4.2,12.7,10.6v0.1c0,7-5.5,11.1-13.8,11.1
			C-124.1-1034.9-129.9-1036.8-134.1-1040.5z"/>
		<path class="st7" d="M-92.4-1061.3h-10.2v-8.3h29.9v8.3h-10.2v25.8h-9.5V-1061.3z"/>
		<path class="st7" d="M-71.2-1052.4L-71.2-1052.4c0-9.9,7.9-17.8,18.4-17.8s18.3,7.8,18.3,17.6v0.1c0,9.8-7.9,17.7-18.4,17.7
			S-71.2-1042.6-71.2-1052.4z M-44.1-1052.4L-44.1-1052.4c0-5-3.6-9.3-8.8-9.3c-5.2,0-8.6,4.2-8.6,9.1v0.1c0,4.9,3.6,9.2,8.7,9.2
			C-47.5-1043.3-44.1-1047.5-44.1-1052.4z"/>
		<path class="st7" d="M-29.5-1069.6h16.1c5.2,0,8.8,1.4,11.1,3.7c2,1.9,3,4.6,3,7.9v0.1c0,5.2-2.8,8.7-7,10.5l8.1,11.9H-9
			l-6.9-10.3H-16h-4v10.3h-9.5V-1069.6z M-13.8-1053.2c3.2,0,5.1-1.6,5.1-4v-0.1c0-2.7-1.9-4-5.1-4h-6.2v8.2H-13.8z"/>
		<path class="st7" d="M14.1-1048.2l-13-21.3H12l7,12.4l7.1-12.4h10.6l-13,21.2v12.9h-9.5V-1048.2z"/>
	</g>
	<path class="st7" d="M74.2-1069.6v15.6c0,12.2-7,19.2-16.9,19.2h-0.1c-9.8,0-17.2-7.2-17.2-19.4v-15.4H74.2z M48.5-1053.9
		c0,5.7,3.1,9.4,8.6,9.4h0.1c5.5,0,8.6-3.8,8.6-9.4v-7.5H48.5V-1053.9z"/>
</g>
<g>
	<rect x="219.9" y="-1168.9" class="st1" width="347.9" height="110.4"/>
	<g>
		<rect x="254.9" y="-1116.2" class="st2" width="268.8" height="111.3"/>
		<rect x="263.9" y="-1128.2" class="st6" width="268.8" height="111.3"/>
	</g>
	<path class="st7" d="M497.2-1102.3v0.1c0,2.6-2.1,4.8-4.8,4.8h0c-2.6,0-4.8-2.1-4.8-4.8v-0.1c0-2.6,2.1-4.8,4.8-4.8h0
		C495.1-1107.1,497.2-1104.9,497.2-1102.3z M483.1-1102.3v0.1c0,2.6-2.1,4.8-4.8,4.8l0,0c-2.6,0-4.8-2.1-4.8-4.8v-0.1
		c0-2.6,2.1-4.8,4.8-4.8l0,0C481-1107.1,483.1-1104.9,483.1-1102.3z"/>
	<g>
		<path class="st7" d="M294.2-1060.5l5.3-6.3c3.4,2.7,7.1,4.1,11.1,4.1c2.5,0,3.9-0.9,3.9-2.3v-0.1c0-1.4-1.1-2.2-5.8-3.3
			c-7.3-1.7-12.9-3.7-12.9-10.7v-0.1c0-6.3,5-10.9,13.2-10.9c5.8,0,10.3,1.6,14,4.5l-4.7,6.7c-3.1-2.2-6.5-3.4-9.6-3.4
			c-2.3,0-3.4,1-3.4,2.2v0.1c0,1.6,1.2,2.2,5.9,3.3c7.8,1.7,12.7,4.2,12.7,10.6v0.1c0,7-5.5,11.1-13.8,11.1
			C304.1-1054.9,298.4-1056.8,294.2-1060.5z"/>
		<path class="st7" d="M335.9-1081.3h-10.2v-8.3h29.9v8.3h-10.2v25.8h-9.5V-1081.3z"/>
		<path class="st7" d="M357.1-1072.4L357.1-1072.4c0-9.9,7.9-17.8,18.4-17.8s18.3,7.8,18.3,17.6v0.1c0,9.8-7.9,17.7-18.4,17.7
			S357.1-1062.6,357.1-1072.4z M384.2-1072.4L384.2-1072.4c0-5-3.6-9.3-8.8-9.3c-5.2,0-8.6,4.2-8.6,9.1v0.1c0,4.9,3.6,9.2,8.7,9.2
			C380.7-1063.3,384.2-1067.5,384.2-1072.4z"/>
		<path class="st7" d="M398.7-1089.6h16.1c5.2,0,8.8,1.4,11.1,3.7c2,1.9,3,4.6,3,7.9v0.1c0,5.2-2.8,8.7-7,10.5l8.1,11.9h-10.9
			l-6.9-10.3h-0.1h-4v10.3h-9.5V-1089.6z M414.4-1073.2c3.2,0,5.1-1.6,5.1-4v-0.1c0-2.7-1.9-4-5.1-4h-6.2v8.2H414.4z"/>
		<path class="st7" d="M442.4-1068.2l-13-21.3h10.8l7,12.4l7.1-12.4h10.6l-13,21.2v12.9h-9.5V-1068.2z"/>
	</g>
	<path class="st7" d="M502.5-1089.6v15.6c0,12.2-7,19.2-16.9,19.2h-0.1c-9.8,0-17.2-7.2-17.2-19.4v-15.4H502.5z M476.7-1073.9
		c0,5.7,3.1,9.4,8.6,9.4h0.1c5.5,0,8.6-3.8,8.6-9.4v-7.5h-17.3V-1073.9z"/>
</g>
<g>
	<g>
		<path class="st2" d="M750.7-835.6l4.9-5.8c3.1,2.5,6.6,3.8,10.2,3.8c2.3,0,3.6-0.8,3.6-2.2v-0.1c0-1.3-1-2-5.3-3
			c-6.7-1.5-11.9-3.4-11.9-9.9v-0.1c0-5.8,4.6-10.1,12.2-10.1c5.3,0,9.5,1.4,12.9,4.2l-4.4,6.2c-2.9-2-6-3.1-8.8-3.1
			c-2.1,0-3.1,0.9-3.1,2v0.1c0,1.4,1.1,2.1,5.4,3.1c7.2,1.6,11.7,3.9,11.7,9.8v0.1c0,6.4-5.1,10.2-12.7,10.2
			C759.9-830.4,754.6-832.1,750.7-835.6z"/>
		<path class="st2" d="M789.2-854.8h-9.4v-7.6h27.6v7.6h-9.4v23.8h-8.7V-854.8z"/>
		<path class="st2" d="M808.8-846.6L808.8-846.6c0-9.1,7.3-16.5,17-16.5s16.9,7.2,16.9,16.3v0.1c0,9-7.3,16.4-17,16.4
			S808.8-837.5,808.8-846.6z M833.8-846.6L833.8-846.6c0-4.6-3.3-8.6-8.1-8.6c-4.8,0-8,3.9-8,8.4v0.1c0,4.5,3.3,8.5,8,8.5
			C830.6-838.2,833.8-842,833.8-846.6z"/>
		<path class="st2" d="M847.2-862.4h14.9c4.8,0,8.1,1.3,10.2,3.4c1.8,1.8,2.8,4.2,2.8,7.3v0.1c0,4.8-2.6,8-6.5,9.7l7.5,11h-10.1
			l-6.3-9.5h-0.1h-3.7v9.5h-8.7V-862.4z M861.7-847.3c3,0,4.7-1.4,4.7-3.7v-0.1c0-2.5-1.8-3.7-4.7-3.7h-5.7v7.6H861.7z"/>
		<path class="st2" d="M887.5-842.7l-12-19.7h9.9l6.5,11.5l6.5-11.5h9.8l-12,19.6v11.9h-8.8V-842.7z"/>
	</g>
	<path class="st2" d="M938-873.1v0.1c0,2.4-2,4.4-4.4,4.4l0,0c-2.4,0-4.4-2-4.4-4.4v-0.1c0-2.4,2-4.4,4.4-4.4l0,0
		C936.1-877.5,938-875.5,938-873.1z M925.1-873.1v0.1c0,2.4-2,4.4-4.4,4.4l0,0c-2.4,0-4.4-2-4.4-4.4v-0.1c0-2.4,2-4.4,4.4-4.4l0,0
		C923.1-877.5,925.1-875.5,925.1-873.1z"/>
	<path class="st2" d="M942.9-862.4v14.4c0,11.2-6.5,17.8-15.6,17.8h-0.1c-9.1,0-15.8-6.6-15.8-17.9v-14.2H942.9z M919.2-847.9
		c0,5.2,2.9,8.7,8,8.7h0.1c5,0,8-3.5,8-8.7v-6.9h-16V-847.9z"/>
</g>
<text transform="matrix(1 0 0 1 366.501 -839.1543)" class="st1 st9 st10">Login</text>
<text transform="matrix(1 0 0 1 348.0016 -747.1543)" class="st1 st10" style="font-family:'Gotham-Bold';">REGISTER</text>
<rect x="312.8" y="-867.7" class="st8" width="156" height="46"/>
<g>
	<text transform="matrix(1 0 0 1 63.1966 34.7047)" class="st1 st9 st10">Login</text>
	<rect x="9.5" y="6.1" class="st8" width="156" height="46"/>
</g>
<line class="st8" x1="278.3" y1="-792" x2="509.3" y2="-792"/>
</svg>
