<?xml version="1.0" encoding="utf-8"?>
<!-- Generator: Adobe Illustrator 22.0.1, SVG Export Plug-In . SVG Version: 6.00 Build 0)  -->
<svg version="1.0" id="Layer_1" xmlns="http://www.w3.org/2000/svg" xmlns:xlink="http://www.w3.org/1999/xlink" x="0px" y="0px"
	 viewBox="0 0 254.4 254.4" style="enable-background:new 0 0 254.4 254.4;" xml:space="preserve">
<style type="text/css">
	.st0{fill:#0F277B;}
	.st1{fill:#F31E76;}
	.st2{fill:#F4C73D;}
	.st3{fill:#FFC0C0;}
	.st4{fill:#9F4CD6;}
	.st5{fill:#FFFFFF;stroke:#DE2127;stroke-width:3;stroke-miterlimit:10;}
	.st6{fill:#FFFFFF;stroke:#F4C73D;stroke-width:5.4749;stroke-miterlimit:10;}
	.st7{fill:#1D90D6;}
	.st8{fill:none;stroke:#F31E76;stroke-miterlimit:10;}
	.st9{fill:none;stroke:#0F277B;stroke-width:1.3979;stroke-miterlimit:10;}
</style>
<rect x="-356" y="999" class="st0" width="283.1" height="260.9"/>
<rect x="-327" y="1016.9" class="st1" width="225" height="225"/>
<g>
	<g>
		<path class="st2" d="M-310.6,1147.7l4.9-5.8c3.1,2.5,6.6,3.8,10.2,3.8c2.3,0,3.6-0.8,3.6-2.2v-0.1c0-1.3-1-2-5.3-3
			c-6.7-1.5-11.9-3.4-11.9-9.9v-0.1c0-5.8,4.6-10.1,12.2-10.1c5.3,0,9.5,1.4,12.9,4.2l-4.4,6.2c-2.9-2-6-3.1-8.8-3.1
			c-2.1,0-3.1,0.9-3.1,2v0.1c0,1.4,1.1,2.1,5.4,3.1c7.2,1.6,11.7,3.9,11.7,9.8v0.1c0,6.4-5.1,10.2-12.7,10.2
			C-301.4,1152.9-306.7,1151.2-310.6,1147.7z"/>
		<path class="st2" d="M-272.1,1128.6h-9.4v-7.6h27.6v7.6h-9.4v23.8h-8.7V1128.6z"/>
		<path class="st2" d="M-252.5,1136.7L-252.5,1136.7c0-9.1,7.3-16.5,17-16.5c9.7,0,16.9,7.2,16.9,16.3v0.1c0,9-7.3,16.4-17,16.4
			C-245.3,1153-252.5,1145.8-252.5,1136.7z M-227.5,1136.7L-227.5,1136.7c0-4.6-3.3-8.6-8.1-8.6c-4.8,0-8,3.9-8,8.4v0.1
			c0,4.5,3.3,8.5,8,8.5C-230.7,1145.1-227.5,1141.3-227.5,1136.7z"/>
		<path class="st2" d="M-214.1,1120.9h14.9c4.8,0,8.1,1.3,10.2,3.4c1.8,1.8,2.8,4.2,2.8,7.3v0.1c0,4.8-2.6,8-6.5,9.7l7.5,11h-10.1
			l-6.3-9.5h-0.1h-3.7v9.5h-8.7V1120.9z M-199.6,1136c3,0,4.7-1.4,4.7-3.7v-0.1c0-2.5-1.8-3.7-4.7-3.7h-5.7v7.6H-199.6z"/>
		<path class="st2" d="M-173.8,1140.6l-12-19.7h9.9l6.5,11.5l6.5-11.5h9.8l-12,19.6v11.9h-8.8V1140.6z"/>
	</g>
	<path class="st2" d="M-123.2,1110.2v0.1c0,2.4-2,4.4-4.4,4.4h0c-2.4,0-4.4-2-4.4-4.4v-0.1c0-2.4,2-4.4,4.4-4.4h0
		C-125.2,1105.9-123.2,1107.8-123.2,1110.2z M-136.2,1110.2v0.1c0,2.4-2,4.4-4.4,4.4l0,0c-2.4,0-4.4-2-4.4-4.4v-0.1
		c0-2.4,2-4.4,4.4-4.4l0,0C-138.2,1105.9-136.2,1107.8-136.2,1110.2z"/>
	<path class="st2" d="M-118.4,1120.9v14.4c0,11.2-6.5,17.8-15.6,17.8h-0.1c-9.1,0-15.8-6.6-15.8-17.9v-14.2H-118.4z M-142.1,1135.4
		c0,5.2,2.9,8.7,8,8.7h0.1c5,0,8-3.5,8-8.7v-6.9h-16V1135.4z"/>
</g>
<rect x="-1231" y="188.7" class="st2" width="375" height="667"/>
<rect x="-800" y="188.7" class="st3" width="375" height="667"/>
<polygon class="st0" points="-425,855.7 -800,855.7 -800,816.1 -425,747.8 "/>
<rect x="-800" y="1120.7" class="st3" width="375" height="667"/>
<polygon class="st0" points="-425,1787.7 -800,1787.7 -800,1748.1 -425,1679.8 "/>
<rect class="st3" width="254.4" height="254.4"/>
<g>
	<g>
		<path class="st4" d="M39.7,140l4.4-5.3c2.8,2.3,6,3.4,9.3,3.4c2.1,0,3.3-0.7,3.3-2v-0.1c0-1.2-0.9-1.8-4.8-2.7
			c-6.1-1.4-10.8-3.1-10.8-9v-0.1c0-5.3,4.2-9.2,11.1-9.2c4.9,0,8.7,1.3,11.8,3.8l-4,5.6c-2.6-1.8-5.5-2.8-8-2.8
			c-1.9,0-2.9,0.8-2.9,1.8v0.1c0,1.3,1,1.9,5,2.8c6.6,1.4,10.7,3.6,10.7,8.9v0.1c0,5.9-4.6,9.3-11.6,9.3
			C48,144.7,43.2,143.1,39.7,140z"/>
		<path class="st4" d="M74.7,122.5h-8.6v-7h25.1v7h-8.6v21.7h-7.9V122.5z"/>
		<path class="st4" d="M92.5,130L92.5,130c0-8.3,6.6-15,15.5-15s15.4,6.6,15.4,14.8v0.1c0,8.2-6.6,14.9-15.5,14.9
			S92.5,138.2,92.5,130z M115.3,130L115.3,130c0-4.2-3-7.8-7.4-7.8c-4.3,0-7.2,3.5-7.2,7.7v0.1c0,4.1,3,7.7,7.3,7.7
			C112.4,137.6,115.3,134.1,115.3,130z"/>
		<path class="st4" d="M127.5,115.5h13.6c4.4,0,7.4,1.1,9.3,3.1c1.7,1.6,2.5,3.8,2.5,6.7v0.1c0,4.4-2.3,7.3-5.9,8.8l6.8,10h-9.2
			l-5.8-8.7h-0.1h-3.4v8.7h-7.9V115.5z M140.7,129.3c2.7,0,4.3-1.3,4.3-3.4v-0.1c0-2.3-1.6-3.4-4.3-3.4h-5.2v6.9H140.7z"/>
		<path class="st4" d="M164.2,133.5l-10.9-17.9h9l5.9,10.4l5.9-10.4h8.9l-10.9,17.8v10.9h-8V133.5z"/>
	</g>
	<path class="st4" d="M210.3,107.6v0.1c0,2.2-1.8,4-4,4l0,0c-2.2,0-4-1.8-4-4v-0.1c0-2.2,1.8-4,4-4l0,0
		C208.5,103.6,210.3,105.4,210.3,107.6z M198.5,107.6v0.1c0,2.2-1.8,4-4,4h0c-2.2,0-4-1.8-4-4v-0.1c0-2.2,1.8-4,4-4h0
		C196.7,103.6,198.5,105.4,198.5,107.6z"/>
	<path class="st4" d="M214.7,115.5v13.1c0,10.2-5.9,16.2-14.2,16.2h-0.1c-8.3,0-14.4-6-14.4-16.3v-12.9H214.7z M193.1,128.7
		c0,4.8,2.6,7.9,7.2,7.9h0.1c4.6,0,7.2-3.2,7.2-7.9v-6.3h-14.6V128.7z"/>
</g>
<g>
	<g>
		<rect x="-1154.5" y="502.7" class="st5" width="222" height="55"/>
		<text transform="matrix(1 0 0 1 -1083.6982 539.4536)" style="fill:#DE2127; font-family:'Anton-Regular'; font-size:24px;">REGISTER</text>
	</g>
</g>
<g>
	<rect x="-1214.7" y="227.2" class="st1" width="347.9" height="110.4"/>
	<g>
		<rect x="-1179.7" y="279.9" class="st2" width="268.8" height="111.3"/>
		<rect x="-1170.7" y="267.9" class="st6" width="268.8" height="111.3"/>
	</g>
	<path class="st7" d="M-937.4,293.8v0.1c0,2.6-2.1,4.8-4.8,4.8l0,0c-2.6,0-4.8-2.1-4.8-4.8v-0.1c0-2.6,2.1-4.8,4.8-4.8l0,0
		C-939.5,289-937.4,291.2-937.4,293.8z M-951.5,293.8v0.1c0,2.6-2.1,4.8-4.8,4.8l0,0c-2.6,0-4.8-2.1-4.8-4.8v-0.1
		c0-2.6,2.1-4.8,4.8-4.8l0,0C-953.6,289-951.5,291.2-951.5,293.8z"/>
	<g>
		<path class="st7" d="M-1140.4,335.5l5.3-6.3c3.4,2.7,7.1,4.1,11.1,4.1c2.5,0,3.9-0.9,3.9-2.3v-0.1c0-1.4-1.1-2.2-5.8-3.3
			c-7.3-1.7-12.9-3.7-12.9-10.7v-0.1c0-6.3,5-10.9,13.2-10.9c5.8,0,10.3,1.6,14,4.5l-4.7,6.7c-3.1-2.2-6.5-3.4-9.6-3.4
			c-2.3,0-3.4,1-3.4,2.2v0.1c0,1.6,1.2,2.2,5.9,3.3c7.8,1.7,12.7,4.2,12.7,10.6v0.1c0,7-5.5,11.1-13.8,11.1
			C-1130.5,341.2-1136.2,339.3-1140.4,335.5z"/>
		<path class="st7" d="M-1098.7,314.8h-10.2v-8.3h29.9v8.3h-10.2v25.8h-9.5V314.8z"/>
		<path class="st7" d="M-1077.5,323.7L-1077.5,323.7c0-9.9,7.9-17.8,18.4-17.8c10.5,0,18.3,7.8,18.3,17.6v0.1
			c0,9.8-7.9,17.7-18.4,17.7S-1077.5,333.4-1077.5,323.7z M-1050.4,323.7L-1050.4,323.7c0-5-3.6-9.3-8.8-9.3c-5.2,0-8.6,4.2-8.6,9.1
			v0.1c0,4.9,3.6,9.2,8.7,9.2C-1053.9,332.8-1050.4,328.6-1050.4,323.7z"/>
		<path class="st7" d="M-1035.9,306.5h16.1c5.2,0,8.8,1.4,11.1,3.7c2,1.9,3,4.6,3,7.9v0.1c0,5.2-2.8,8.7-7,10.5l8.1,11.9h-10.9
			l-6.9-10.3h-0.1h-4v10.3h-9.5V306.5z M-1020.2,322.9c3.2,0,5.1-1.6,5.1-4v-0.1c0-2.7-1.9-4-5.1-4h-6.2v8.2H-1020.2z"/>
		<path class="st7" d="M-992.2,327.8l-13-21.3h10.8l7,12.4l7.1-12.4h10.6l-13,21.2v12.9h-9.5V327.8z"/>
	</g>
	<path class="st7" d="M-932.1,306.5V322c0,12.2-7,19.2-16.9,19.2h-0.1c-9.8,0-17.2-7.2-17.2-19.4v-15.4H-932.1z M-957.8,322.2
		c0,5.7,3.1,9.4,8.6,9.4h0.1c5.5,0,8.6-3.8,8.6-9.4v-7.5h-17.3V322.2z"/>
</g>
<g>
	<rect x="-786.5" y="207.2" class="st1" width="347.9" height="110.4"/>
	<g>
		<rect x="-751.4" y="259.9" class="st2" width="268.8" height="111.3"/>
		<rect x="-742.4" y="247.9" class="st6" width="268.8" height="111.3"/>
	</g>
	<path class="st7" d="M-509.1,273.8v0.1c0,2.6-2.1,4.8-4.8,4.8l0,0c-2.6,0-4.8-2.1-4.8-4.8v-0.1c0-2.6,2.1-4.8,4.8-4.8l0,0
		C-511.3,269-509.1,271.2-509.1,273.8z M-523.2,273.8v0.1c0,2.6-2.1,4.8-4.8,4.8l0,0c-2.6,0-4.8-2.1-4.8-4.8v-0.1
		c0-2.6,2.1-4.8,4.8-4.8l0,0C-525.3,269-523.2,271.2-523.2,273.8z"/>
	<g>
		<path class="st7" d="M-712.2,315.5l5.3-6.3c3.4,2.7,7.1,4.1,11.1,4.1c2.5,0,3.9-0.9,3.9-2.3v-0.1c0-1.4-1.1-2.2-5.8-3.3
			c-7.3-1.7-12.9-3.7-12.9-10.7v-0.1c0-6.3,5-10.9,13.2-10.9c5.8,0,10.3,1.6,14,4.5l-4.7,6.7c-3.1-2.2-6.5-3.4-9.6-3.4
			c-2.3,0-3.4,1-3.4,2.2v0.1c0,1.6,1.2,2.2,5.9,3.3c7.8,1.7,12.7,4.2,12.7,10.6v0.1c0,7-5.5,11.1-13.8,11.1
			C-702.2,321.2-708,319.3-712.2,315.5z"/>
		<path class="st7" d="M-670.5,294.8h-10.2v-8.3h29.9v8.3H-661v25.8h-9.5V294.8z"/>
		<path class="st7" d="M-649.3,303.7L-649.3,303.7c0-9.9,7.9-17.8,18.4-17.8c10.5,0,18.3,7.8,18.3,17.6v0.1
			c0,9.8-7.9,17.7-18.4,17.7C-641.5,321.3-649.3,313.4-649.3,303.7z M-622.2,303.7L-622.2,303.7c0-5-3.6-9.3-8.8-9.3
			c-5.2,0-8.6,4.2-8.6,9.1v0.1c0,4.9,3.6,9.2,8.7,9.2C-625.7,312.8-622.2,308.6-622.2,303.7z"/>
		<path class="st7" d="M-607.6,286.5h16.1c5.2,0,8.8,1.4,11.1,3.7c2,1.9,3,4.6,3,7.9v0.1c0,5.2-2.8,8.7-7,10.5l8.1,11.9h-10.9
			l-6.9-10.3h-0.1h-4v10.3h-9.5V286.5z M-591.9,302.9c3.2,0,5.1-1.6,5.1-4v-0.1c0-2.7-1.9-4-5.1-4h-6.2v8.2H-591.9z"/>
		<path class="st7" d="M-564,307.8l-13-21.3h10.8l7,12.4l7.1-12.4h10.6l-13,21.2v12.9h-9.5V307.8z"/>
	</g>
	<path class="st7" d="M-503.9,286.5V302c0,12.2-7,19.2-16.9,19.2h-0.1c-9.8,0-17.2-7.2-17.2-19.4v-15.4H-503.9z M-529.6,302.2
		c0,5.7,3.1,9.4,8.6,9.4h0.1c5.5,0,8.6-3.8,8.6-9.4v-7.5h-17.3V302.2z"/>
</g>
<rect x="-1928" y="188.7" class="st3" width="375" height="667"/>
<polygon class="st0" points="-1553,855.7 -1928,855.7 -1928,816.1 -1553,747.8 "/>
<g>
	<rect x="-1914.5" y="207.2" class="st1" width="347.9" height="110.4"/>
	<g>
		<rect x="-1879.4" y="259.9" class="st2" width="268.8" height="111.3"/>
		<rect x="-1870.4" y="247.9" class="st6" width="268.8" height="111.3"/>
	</g>
	<path class="st7" d="M-1637.1,273.8v0.1c0,2.6-2.1,4.8-4.8,4.8h0c-2.6,0-4.8-2.1-4.8-4.8v-0.1c0-2.6,2.1-4.8,4.8-4.8h0
		C-1639.3,269-1637.1,271.2-1637.1,273.8z M-1651.2,273.8v0.1c0,2.6-2.1,4.8-4.8,4.8l0,0c-2.6,0-4.8-2.1-4.8-4.8v-0.1
		c0-2.6,2.1-4.8,4.8-4.8l0,0C-1653.3,269-1651.2,271.2-1651.2,273.8z"/>
	<g>
		<path class="st7" d="M-1840.2,315.5l5.3-6.3c3.4,2.7,7.1,4.1,11.1,4.1c2.5,0,3.9-0.9,3.9-2.3v-0.1c0-1.4-1.1-2.2-5.8-3.3
			c-7.3-1.7-12.9-3.7-12.9-10.7v-0.1c0-6.3,5-10.9,13.2-10.9c5.8,0,10.3,1.6,14,4.5l-4.7,6.7c-3.1-2.2-6.5-3.4-9.6-3.4
			c-2.3,0-3.4,1-3.4,2.2v0.1c0,1.6,1.2,2.2,5.9,3.3c7.8,1.7,12.7,4.2,12.7,10.6v0.1c0,7-5.5,11.1-13.8,11.1
			C-1830.2,321.2-1836,319.3-1840.2,315.5z"/>
		<path class="st7" d="M-1798.5,294.8h-10.2v-8.3h29.9v8.3h-10.2v25.8h-9.5V294.8z"/>
		<path class="st7" d="M-1777.3,303.7L-1777.3,303.7c0-9.9,7.9-17.8,18.4-17.8c10.5,0,18.3,7.8,18.3,17.6v0.1
			c0,9.8-7.9,17.7-18.4,17.7S-1777.3,313.4-1777.3,303.7z M-1750.2,303.7L-1750.2,303.7c0-5-3.6-9.3-8.8-9.3c-5.2,0-8.6,4.2-8.6,9.1
			v0.1c0,4.9,3.6,9.2,8.7,9.2C-1753.7,312.8-1750.2,308.6-1750.2,303.7z"/>
		<path class="st7" d="M-1735.6,286.5h16.1c5.2,0,8.8,1.4,11.1,3.7c2,1.9,3,4.6,3,7.9v0.1c0,5.2-2.8,8.7-7,10.5l8.1,11.9h-10.9
			l-6.9-10.3h-0.1h-4v10.3h-9.5V286.5z M-1719.9,302.9c3.2,0,5.1-1.6,5.1-4v-0.1c0-2.7-1.9-4-5.1-4h-6.2v8.2H-1719.9z"/>
		<path class="st7" d="M-1692,307.8l-13-21.3h10.8l7,12.4l7.1-12.4h10.6l-13,21.2v12.9h-9.5V307.8z"/>
	</g>
	<path class="st7" d="M-1631.9,286.5V302c0,12.2-7,19.2-16.9,19.2h-0.1c-9.8,0-17.2-7.2-17.2-19.4v-15.4H-1631.9z M-1657.6,302.2
		c0,5.7,3.1,9.4,8.6,9.4h0.1c5.5,0,8.6-3.8,8.6-9.4v-7.5h-17.3V302.2z"/>
</g>
<g>
	<g>
		<path class="st2" d="M-255.6,540.5l4.9-5.8c3.1,2.5,6.6,3.8,10.2,3.8c2.3,0,3.6-0.8,3.6-2.2v-0.1c0-1.3-1-2-5.3-3
			c-6.7-1.5-11.9-3.4-11.9-9.9v-0.1c0-5.8,4.6-10.1,12.2-10.1c5.3,0,9.5,1.4,12.9,4.2l-4.4,6.2c-2.9-2-6-3.1-8.8-3.1
			c-2.1,0-3.1,0.9-3.1,2v0.1c0,1.4,1.1,2.1,5.4,3.1c7.2,1.6,11.7,3.9,11.7,9.8v0.1c0,6.4-5.1,10.2-12.7,10.2
			C-246.5,545.7-251.8,543.9-255.6,540.5z"/>
		<path class="st2" d="M-217.1,521.3h-9.4v-7.6h27.6v7.6h-9.4v23.8h-8.7V521.3z"/>
		<path class="st2" d="M-197.6,529.5L-197.6,529.5c0-9.1,7.3-16.5,17-16.5s16.9,7.2,16.9,16.3v0.1c0,9-7.3,16.4-17,16.4
			C-190.4,545.8-197.6,538.5-197.6,529.5z M-172.6,529.5L-172.6,529.5c0-4.6-3.3-8.6-8.1-8.6c-4.8,0-8,3.9-8,8.4v0.1
			c0,4.5,3.3,8.5,8,8.5C-175.8,537.9-172.6,534.1-172.6,529.5z"/>
		<path class="st2" d="M-159.2,513.7h14.9c4.8,0,8.1,1.3,10.2,3.4c1.8,1.8,2.8,4.2,2.8,7.3v0.1c0,4.8-2.6,8-6.5,9.7l7.5,11h-10.1
			l-6.3-9.5h-0.1h-3.7v9.5h-8.7V513.7z M-144.7,528.8c3,0,4.7-1.4,4.7-3.7V525c0-2.5-1.8-3.7-4.7-3.7h-5.7v7.6H-144.7z"/>
		<path class="st2" d="M-118.9,533.4l-12-19.7h9.9l6.5,11.5l6.5-11.5h9.8l-12,19.6v11.9h-8.8V533.4z"/>
	</g>
	<path class="st2" d="M-68.3,503v0.1c0,2.4-2,4.4-4.4,4.4h0c-2.4,0-4.4-2-4.4-4.4V503c0-2.4,2-4.4,4.4-4.4h0
		C-70.3,498.6-68.3,500.6-68.3,503z M-81.3,503v0.1c0,2.4-2,4.4-4.4,4.4h0c-2.4,0-4.4-2-4.4-4.4V503c0-2.4,2-4.4,4.4-4.4h0
		C-83.3,498.6-81.3,500.6-81.3,503z"/>
	<path class="st2" d="M-63.4,513.7V528c0,11.2-6.5,17.8-15.6,17.8h-0.1c-9.1,0-15.8-6.6-15.8-17.9v-14.2H-63.4z M-87.2,528.2
		c0,5.2,2.9,8.7,8,8.7h0.1c5,0,8-3.5,8-8.7v-6.9h-16V528.2z"/>
</g>
<text transform="matrix(1 0 0 1 204.1521 536.9337)" class="st1" style="font-family:'Gotham-Light'; font-size:17.906px;">Login</text>
<text transform="matrix(1 0 0 1 185.6528 628.9337)" class="st1" style="font-family:'Gotham-Bold'; font-size:17.906px;">REGISTER</text>
<rect x="150.5" y="508.3" class="st8" width="156" height="46"/>
<g>
	<text transform="matrix(1 0 0 1 -943.1522 1120.7926)" class="st1" style="font-family:'Gotham-Light'; font-size:17.906px;">Login</text>
	<rect x="-996.8" y="1092.2" class="st8" width="156" height="46"/>
</g>
<line class="st8" x1="116" y1="584.1" x2="347" y2="584.1"/>
<text transform="matrix(1 0 0 1 -2614.4062 1192.5035)" class="st0" style="font-family:'GothamHTF-Black'; font-size:44.8753px;">COMMENTS</text>
<text transform="matrix(1 0 0 1 -2976.8979 1192.5035)" class="st0" style="font-family:'GothamHTF-Black'; font-size:44.8753px;">REVIEWS</text>
<text transform="matrix(1 0 0 1 -1395.744 1560.1434)" class="st0" style="font-family:'GothamHTF-Black'; font-size:44.8753px;">PROFILE</text>
<text transform="matrix(1 0 0 1 -1535.2484 1376.1434)" class="st0" style="font-family:'GothamHTF-Black'; font-size:44.8753px;">SETTINGS</text>
<text transform="matrix(1 0 0 1 -1917.3633 1366.5035)" class="st0" style="font-family:'GothamHTF-Black'; font-size:44.8753px;">HOME</text>
<text transform="matrix(1 0 0 1 -2228.1904 1192.5035)" class="st0" style="font-family:'GothamHTF-Black'; font-size:44.8753px;">CONTACT</text>
<text transform="matrix(1 0 0 1 -3346.1943 1192.5035)" class="st0" style="font-family:'GothamHTF-Black'; font-size:44.8753px;">TOPICS</text>
<line class="st9" x1="-3378.9" y1="1209.4" x2="-3141.1" y2="1209.4"/>
</svg>
